<svg width="164" height="234" viewBox="0 0 164 234" fill="none" xmlns="http://www.w3.org/2000/svg">
<path d="M81.6667 0C60.0073 0 39.2351 8.60414 23.9196 23.9196C8.60414 39.2351 0 60.0073 0 81.6667C0 97.8017 4.69 112.758 12.7633 125.417C13.1483 126.035 13.4517 126.642 13.86 127.248L64.5283 221.305C66.9083 228.142 73.6517 233.333 81.305 233.333C88.9583 233.333 95.3283 228.142 97.7083 221.305L154.222 119.222C160.043 107.987 163.333 95.1883 163.333 81.6667C163.333 60.0073 154.729 39.2351 139.414 23.9196C124.098 8.60414 103.326 0 81.6667 0ZM81.305 46.305C92.1347 46.305 102.521 50.6071 110.179 58.2648C117.836 65.9225 122.138 76.3087 122.138 87.1383C122.138 97.968 117.836 108.354 110.179 116.012C102.521 123.67 92.1347 127.972 81.305 127.972C70.4753 127.972 60.0892 123.67 52.4315 116.012C44.7737 108.354 40.4717 97.968 40.4717 87.1383C40.4717 76.3087 44.7737 65.9225 52.4315 58.2648C60.0892 50.6071 70.4753 46.305 81.305 46.305Z" fill="#3441F5"/>
<circle cx="82" cy="85" r="63" fill="white"/>
<g clip-path="url(#clip0_404_1594)">
<path d="M92.7915 63.0876H105.611V61.0704C101.339 60.9016 97.0664 60.7632 92.7915 60.6594V63.0876Z" fill="#352C26"/>
<path d="M121.193 98.7383C121.236 98.6762 121.283 98.6176 121.329 98.5569H116.894C116.939 98.6176 116.986 98.6762 117.03 98.7383H121.193H121.193Z" fill="#0E0B04"/>
<path d="M51.7553 102.224H49.9252C49.9422 102.425 49.9556 102.626 49.9556 102.831C49.9556 104.541 49.3522 106.111 48.3486 107.343C49.9613 107.274 51.5747 107.209 53.188 107.152C52.273 105.949 51.7241 104.455 51.7241 102.831C51.7241 102.626 51.7383 102.425 51.7546 102.224H51.7553Z" fill="#0E0B04"/>
<path d="M54.3035 82.3582C54.2851 82.0899 54.2723 81.8195 54.2659 81.5483C53.4621 81.638 52.6582 81.7284 51.8544 81.8216V82.3589H54.3035V82.3582Z" fill="#0E0B04"/>
<path d="M105.23 98.7383C105.274 98.6762 105.321 98.6176 105.366 98.5569H99.7776V98.7383H105.23Z" fill="#0E0B04"/>
<path d="M119.933 102.224H118.29C118.307 102.425 118.321 102.626 118.321 102.831C118.321 104.265 117.893 105.599 117.165 106.72C118.461 106.719 119.757 106.715 121.052 106.71C120.328 105.591 119.902 104.262 119.902 102.831C119.902 102.626 119.916 102.425 119.933 102.224Z" fill="#0E0B04"/>
<path d="M64.8159 98.7383H80.8427V98.5568H71.7418C66.6729 98.5568 62.1097 96.404 58.9163 92.969V95.6619C61.3611 95.6619 63.517 96.8806 64.8159 98.7383Z" fill="#0E0B04"/>
<path d="M92.7915 60.6588V60.144V60H91.902H90.693H89.1228H77.2994V60.4399V63.0876H92.7915V60.6588Z" fill="#2C304B"/>
<path d="M110.285 60H108.713H107.505H105.934H105.611V61.0704V63.0876H121.103V61.8132V60H110.285Z" fill="#2C304B"/>
<path d="M34.3113 98.7383L35.045 93.9158H43.1628V69.032H32.5711C32.5711 69.032 30.5824 69.1096 29.872 71.8153L27.0305 84.175C27.0305 84.175 26.7968 84.5725 26.629 85.2312C26.5355 85.5991 26.4625 86.0467 26.4625 86.5551V90.5536H29.588V94.4814H26.4625V98.7383H34.3113ZM28.8337 88.2504L28.5653 86.2579C28.5653 85.0738 29.0391 83.2458 29.0391 83.2458L31.4103 72.9323C31.4252 72.8772 31.4429 72.8292 31.4585 72.777L31.4549 72.7755C31.4733 72.7141 31.4939 72.6569 31.5137 72.5983C31.5229 72.5715 31.5314 72.5425 31.5413 72.5164C31.5796 72.4112 31.6206 72.3138 31.6638 72.2192C31.678 72.1888 31.6922 72.1599 31.7063 72.1302C31.741 72.0596 31.7772 71.9925 31.8133 71.9283C31.826 71.905 31.8395 71.881 31.8529 71.8591C31.9025 71.7772 31.9528 71.7002 32.0052 71.6289C32.0151 71.6162 32.025 71.6042 32.0343 71.5915C32.081 71.53 32.1277 71.4728 32.1752 71.4192C32.1879 71.4051 32.2007 71.3902 32.2127 71.3768C32.2687 71.3168 32.3246 71.2596 32.3806 71.2081C33.0116 70.6362 33.6618 70.6107 33.6618 70.6107H42.1841L42.4525 88.2511H28.8337V88.2504Z" fill="white"/>
<path d="M43.4158 93.9158H50.1561L51.035 98.7383H51.8545V69.032H43.4158V93.9158ZM49.7517 88.4276H44.5525V86.8043H49.7517V88.4276ZM44.5525 79.6328V70.6743H50.0201V85.1988H44.5525V79.6328Z" fill="white"/>
<path d="M31.8126 71.9276C31.8254 71.9043 31.8388 71.8803 31.8523 71.8584C31.8388 71.881 31.8261 71.905 31.8126 71.9276Z" fill="#C9E7F5"/>
<path d="M31.5131 72.5983C31.5223 72.5714 31.5308 72.5425 31.5407 72.5164C31.5315 72.5425 31.523 72.5714 31.5131 72.5983Z" fill="#C9E7F5"/>
<path d="M32.1746 71.4179C32.1873 71.4037 32.2001 71.3889 32.2121 71.3755C32.1993 71.3889 32.1873 71.4037 32.1746 71.4179Z" fill="#C9E7F5"/>
<path d="M32.0045 71.6275C32.0144 71.6148 32.0243 71.6028 32.0336 71.5901C32.0236 71.6028 32.0137 71.6141 32.0045 71.6275Z" fill="#C9E7F5"/>
<path d="M31.6632 72.2184C31.6774 72.188 31.6915 72.159 31.7057 72.1294C31.6915 72.159 31.6767 72.188 31.6632 72.2184Z" fill="#C9E7F5"/>
<path d="M42.1848 70.6101H33.6625C33.6625 70.6101 33.0124 70.6355 32.3813 71.2074L42.1855 76.3977V78.4552L31.4592 72.7763C31.4436 72.8292 31.4259 72.8773 31.411 72.9316L29.0399 83.2451C29.0399 83.2451 28.566 85.0731 28.566 86.2572L28.8345 88.2497H42.4539L42.1855 70.6094L42.1848 70.6101ZM31.2007 73.8439L42.1848 79.659V83.5078L30.4117 77.2753L31.2007 73.8446V73.8439ZM42.1848 86.5566L29.7878 79.993L30.2092 78.1586L42.1855 84.4991V86.5566H42.1848Z" fill="#C9E7F5"/>
<path d="M44.5525 85.1981H50.0201V70.6743H44.5525V71.3959L49.7517 74.1489V76.2409L44.5525 73.4873V74.7116L49.7517 77.4638V81.3769L44.5525 78.6239V79.6322L49.7517 82.3851V84.4765L44.5525 81.7242V85.1981Z" fill="#C9E7F5"/>
<path d="M56.7548 71.5371C56.8029 71.4573 56.8532 71.3796 56.9028 71.3013C56.8539 71.3796 56.8029 71.4573 56.7548 71.5371Z" fill="#60AFDE"/>
<path d="M105.611 63.0876H71.7418C70.1405 63.0876 68.5915 63.3065 67.1184 63.7083C65.8336 66.1357 65.1049 68.8993 65.1049 71.8351V72.4395C65.1049 82.0674 72.933 89.8715 82.5906 89.8715H134.362C135.961 89.8715 137.509 89.6569 138.98 89.2558C140.267 86.8277 140.999 84.0613 140.999 81.1241V80.5204C140.999 79.4182 140.892 78.3415 140.695 77.2965C139.178 69.2092 132.064 63.0876 123.513 63.0876H105.61H105.611Z" fill="#0D86EF"/>
<path d="M54.3361 78.8632C54.346 78.7622 54.3566 78.6613 54.3679 78.5603C54.3566 78.6613 54.3453 78.7615 54.3361 78.8632Z" fill="#60AFDE"/>
<path d="M55.2773 74.6423C55.3113 74.5477 55.3468 74.4531 55.3822 74.3599C55.346 74.4538 55.3113 74.5477 55.2773 74.6423Z" fill="#60AFDE"/>
<path d="M55.5656 73.896C55.6045 73.8028 55.6435 73.7082 55.6831 73.6157C55.6428 73.7089 55.6038 73.8028 55.5656 73.896Z" fill="#60AFDE"/>
<path d="M54.4353 78.0393C54.4495 77.9391 54.4636 77.8388 54.4799 77.7393C54.4643 77.8388 54.4495 77.9384 54.4353 78.0393Z" fill="#60AFDE"/>
<path d="M57.1733 70.8804C57.2321 70.7921 57.2923 70.7053 57.3532 70.6184C57.2923 70.7053 57.2321 70.7928 57.1733 70.8804Z" fill="#60AFDE"/>
<path d="M56.3234 72.2939C56.3397 72.2636 56.3552 72.2325 56.3715 72.2021C56.3545 72.2325 56.3397 72.2636 56.3234 72.2939Z" fill="#60AFDE"/>
<path d="M59.3278 68.2455C59.4014 68.1714 59.4772 68.1001 59.5523 68.0273C59.4772 68.1008 59.4014 68.1714 59.3278 68.2455Z" fill="#60AFDE"/>
<path d="M64.3138 64.7378C64.1998 64.7907 64.0865 64.8465 63.9739 64.9023C64.0865 64.8465 64.1998 64.7915 64.3138 64.7378Z" fill="#60AFDE"/>
<path d="M64.6913 64.5675C64.8046 64.5173 64.9179 64.4672 65.0319 64.4192C64.9172 64.4672 64.8046 64.5173 64.6913 64.5675Z" fill="#60AFDE"/>
<path d="M58.1104 69.6066C58.1741 69.5275 58.2371 69.4478 58.3023 69.3694C58.2364 69.4478 58.1741 69.5275 58.1104 69.6066Z" fill="#60AFDE"/>
<path d="M58.6862 68.9281C58.7421 68.8652 58.7966 68.8031 58.8533 68.741C58.7966 68.8031 58.7414 68.8659 58.6862 68.9281Z" fill="#60AFDE"/>
<path d="M62.609 65.6536C62.7082 65.5928 62.8087 65.5357 62.9093 65.4771C62.8094 65.5357 62.7082 65.5928 62.609 65.6536Z" fill="#60AFDE"/>
<path d="M65.9264 64.0789C65.7706 64.1339 65.6169 64.1911 65.4633 64.2497C65.6162 64.1911 65.7706 64.1339 65.9264 64.0789Z" fill="#60AFDE"/>
<path d="M63.2811 65.2637C63.3902 65.2037 63.4993 65.1458 63.609 65.0886C63.4993 65.1465 63.3895 65.2037 63.2811 65.2637Z" fill="#60AFDE"/>
<path d="M66.4655 63.8967C66.583 63.86 66.7027 63.8261 66.821 63.7922C66.702 63.8268 66.583 63.86 66.4655 63.8967Z" fill="#60AFDE"/>
<path d="M59.8859 67.7101C59.9709 67.6325 60.0566 67.5555 60.143 67.4792C60.0566 67.5555 59.9709 67.6318 59.8859 67.7101Z" fill="#60AFDE"/>
<path d="M60.4695 67.1976C60.5594 67.1221 60.6501 67.0465 60.7415 66.9717C60.6494 67.0458 60.5594 67.1214 60.4695 67.1976Z" fill="#60AFDE"/>
<path d="M61.0828 66.7048C61.1734 66.6349 61.2634 66.5643 61.3561 66.4958C61.2634 66.5636 61.1734 66.6349 61.0828 66.7048Z" fill="#60AFDE"/>
<path d="M131.06 96.8537C131.079 96.8438 131.099 96.8346 131.119 96.8262C131.099 96.8354 131.079 96.8438 131.059 96.8537C131.059 96.8537 131.059 96.8537 131.06 96.8537Z" fill="#60AFDE"/>
<path d="M132.634 95.9988C132.568 96.039 132.501 96.0779 132.435 96.1167C132.502 96.0779 132.568 96.039 132.634 95.9988Z" fill="#60AFDE"/>
<path d="M136.567 92.7183C136.496 92.7973 136.425 92.8757 136.353 92.9534C136.425 92.8757 136.496 92.7973 136.567 92.7183Z" fill="#60AFDE"/>
<path d="M137.64 91.3945C137.577 91.4814 137.514 91.5675 137.449 91.6522C137.514 91.5668 137.576 91.4807 137.64 91.3945Z" fill="#60AFDE"/>
<path d="M138.065 90.7908C138.007 90.8769 137.947 90.9616 137.888 91.0464C137.947 90.9616 138.007 90.8769 138.065 90.7908Z" fill="#60AFDE"/>
<path d="M133.435 95.4763C133.362 95.5264 133.289 95.5787 133.214 95.6274C133.289 95.578 133.362 95.5264 133.435 95.4763Z" fill="#60AFDE"/>
<path d="M82.5906 89.8716C72.933 89.8716 65.1048 82.0674 65.1048 72.4395V71.8351C65.1048 68.8993 65.8336 66.1358 67.1184 63.7083C67.1191 63.7069 67.1198 63.7055 67.1205 63.7041C67.0199 63.7316 66.9208 63.7634 66.8209 63.7924C66.7019 63.827 66.5822 63.8601 66.4654 63.8969C66.2841 63.954 66.1049 64.0155 65.9264 64.0783C65.7706 64.1334 65.6169 64.1906 65.4632 64.2492C65.3187 64.305 65.1742 64.36 65.0319 64.4186C64.9172 64.4667 64.8045 64.5168 64.6912 64.5669C64.5652 64.6227 64.4391 64.6785 64.3144 64.7371C64.2004 64.79 64.0871 64.8458 63.9745 64.9016C63.852 64.9623 63.7301 65.0244 63.6097 65.088C63.5 65.1459 63.3902 65.2038 63.2818 65.2631C63.1565 65.3323 63.0332 65.4043 62.91 65.4763C62.8101 65.5349 62.7089 65.5921 62.6097 65.6528C62.439 65.7573 62.2719 65.8654 62.1047 65.9755C61.9907 66.0511 61.8781 66.128 61.7662 66.2057C61.6288 66.301 61.4914 66.397 61.3568 66.4959C61.2641 66.5637 61.1741 66.635 61.0834 66.7049C60.9687 66.7931 60.8547 66.8814 60.7421 66.9725C60.65 67.0466 60.5601 67.1222 60.4701 67.1984C60.3603 67.2909 60.2513 67.3848 60.1436 67.4801C60.0572 67.5564 59.9715 67.6334 59.8865 67.711C59.7739 67.8148 59.6634 67.9214 59.5529 68.028C59.4779 68.1015 59.4021 68.1721 59.3284 68.2462C59.1669 68.4086 59.009 68.5738 58.8539 68.7419C58.7972 68.804 58.742 68.8668 58.6868 68.929C58.5564 69.0737 58.4283 69.2206 58.3036 69.3703C58.2377 69.4486 58.1754 69.5284 58.1117 69.6075C58.0125 69.7304 57.9141 69.8539 57.8177 69.9796C57.7519 70.0657 57.6881 70.1526 57.6237 70.2394C57.5316 70.3644 57.4424 70.4908 57.3539 70.6186C57.2929 70.7054 57.2327 70.793 57.174 70.8805C57.0819 71.0189 56.9919 71.1601 56.9034 71.3014C56.8545 71.3797 56.8035 71.4574 56.7554 71.5372C56.6229 71.7554 56.4948 71.9771 56.3722 72.2016C56.3559 72.232 56.3404 72.263 56.3241 72.2934C56.2171 72.4925 56.113 72.6937 56.0139 72.8971C55.9735 72.9797 55.936 73.0637 55.897 73.147C55.8241 73.3016 55.7525 73.4577 55.6845 73.6151C55.6442 73.7083 55.6052 73.8022 55.567 73.8954C55.5039 74.0487 55.443 74.2033 55.3835 74.3586C55.3474 74.4525 55.312 74.5464 55.2787 74.641C55.2178 74.8084 55.1618 74.9778 55.1066 75.148C55.0804 75.2306 55.0514 75.3118 55.0259 75.3951C54.9487 75.6479 54.875 75.9014 54.8084 76.1591C54.8049 76.1711 54.8028 76.1838 54.7992 76.1965C54.7362 76.4422 54.6795 76.6908 54.6271 76.9407C54.6094 77.0261 54.5938 77.1123 54.5775 77.1984C54.5428 77.3778 54.5103 77.5578 54.4805 77.7393C54.4642 77.8388 54.4501 77.9384 54.4359 78.0393C54.4111 78.2123 54.3892 78.386 54.3693 78.5604C54.358 78.6614 54.3467 78.7616 54.3375 78.8633C54.3197 79.0497 54.3063 79.2368 54.295 79.4246C54.2893 79.5129 54.2822 79.6012 54.278 79.6894C54.2652 79.9648 54.2567 80.2423 54.2567 80.5205V81.1241C54.2567 81.2661 54.2645 81.4066 54.2673 81.5478C54.2737 81.8189 54.2865 82.0893 54.3049 82.3576H58.9169V92.9684C62.1111 96.4041 66.6736 98.5562 71.7425 98.5562H80.8434V95.6613H99.7782V98.5562H105.367C106.678 96.8023 108.768 95.6613 111.131 95.6613C113.493 95.6613 115.583 96.8023 116.894 98.5562H121.329C122.641 96.8023 124.73 95.6613 127.093 95.6613C128.56 95.6613 129.922 96.1012 131.059 96.8524C131.079 96.8426 131.099 96.8341 131.119 96.8249C131.332 96.7218 131.543 96.6131 131.751 96.5022C131.828 96.4613 131.904 96.4189 131.98 96.3773C132.133 96.2925 132.284 96.2057 132.434 96.116C132.502 96.0772 132.568 96.0384 132.634 95.9981C132.83 95.8781 133.024 95.7545 133.214 95.6274C133.289 95.578 133.362 95.5265 133.435 95.4763C133.568 95.3845 133.7 95.2913 133.83 95.1967C133.905 95.1424 133.981 95.088 134.055 95.0322C134.234 94.8966 134.411 94.759 134.585 94.6163C134.652 94.5613 134.718 94.5041 134.784 94.4483C134.906 94.3466 135.025 94.2435 135.143 94.1383C135.219 94.0713 135.294 94.0035 135.369 93.935C135.5 93.8135 135.63 93.6907 135.758 93.565C135.843 93.4817 135.928 93.397 136.011 93.3115C136.127 93.1936 136.241 93.075 136.352 92.9543C136.425 92.8766 136.496 92.7982 136.567 92.7191C136.668 92.6062 136.766 92.4925 136.864 92.3774C136.932 92.2976 137 92.2185 137.066 92.1381C137.196 91.9785 137.323 91.8168 137.448 91.653C137.513 91.5675 137.576 91.4814 137.639 91.3953C137.724 91.2802 137.806 91.1644 137.888 91.0472C137.947 90.9625 138.007 90.8777 138.065 90.7916C138.185 90.6115 138.303 90.4287 138.417 90.2437C138.472 90.1561 138.523 90.0665 138.576 89.9775C138.649 89.8539 138.721 89.7297 138.791 89.604C138.843 89.5101 138.896 89.4169 138.946 89.3223C138.958 89.2997 138.972 89.2778 138.983 89.2552C138.981 89.2552 138.981 89.2552 138.98 89.2559C137.509 89.6569 135.96 89.8716 134.362 89.8716H82.5906Z" fill="#0079E2"/>
<path d="M141 102.224V98.7383H132.993C133.695 99.743 134.144 100.935 134.253 102.224H141Z" fill="#2C304B"/>
<path d="M64.8159 98.7382C65.5185 99.7429 65.9675 100.935 66.0766 102.224H80.8427V106.426H99.7775V102.224H103.969C104.078 100.934 104.527 99.7429 105.23 98.7382H99.7775V95.6619H80.8427V98.7382H64.8159ZM96.9106 97.4228V104.236H91.0293V97.4228H96.9106ZM83.709 97.4228H89.5902V104.236H83.709V97.4228Z" fill="#2C304B"/>
<path d="M118.289 102.224H119.932C120.04 100.934 120.49 99.743 121.193 98.7383H117.029C117.731 99.743 118.181 100.935 118.289 102.224Z" fill="#2C304B"/>
<path d="M118.29 102.224C118.18 100.934 117.731 99.7429 117.029 98.7382C116.986 98.6761 116.938 98.6175 116.893 98.5567C115.582 96.8029 113.492 95.6619 111.129 95.6619C108.767 95.6619 106.676 96.8029 105.366 98.5567C105.32 98.6175 105.273 98.6761 105.229 98.7382C104.526 99.7429 104.077 100.935 103.968 102.224C103.951 102.425 103.938 102.626 103.938 102.831C103.938 104.26 104.363 105.588 105.086 106.707C106.366 108.686 108.592 110 111.129 110C113.667 110 115.882 108.692 117.163 106.721C117.892 105.6 118.319 104.266 118.319 102.831C118.319 102.626 118.305 102.425 118.289 102.225L118.29 102.224ZM106.906 102.831C106.906 100.505 108.797 98.6196 111.13 98.6196C113.463 98.6196 115.354 100.505 115.354 102.831C115.354 105.156 113.463 107.041 111.13 107.041C108.797 107.041 106.906 105.156 106.906 102.831Z" fill="#3A4060"/>
<path d="M115.354 102.831C115.354 100.505 113.463 98.6196 111.13 98.6196C108.797 98.6196 106.906 100.505 106.906 102.831C106.906 105.156 108.797 107.041 111.13 107.041C113.463 107.041 115.354 105.156 115.354 102.831ZM107.523 102.831C107.523 100.844 109.138 99.2346 111.13 99.2346C113.122 99.2346 114.736 100.844 114.736 102.831C114.736 104.817 113.122 106.426 111.13 106.426C109.138 106.426 107.523 104.816 107.523 102.831Z" fill="#252840"/>
<path d="M114.736 102.831C114.736 100.844 113.121 99.2346 111.13 99.2346C109.138 99.2346 107.523 100.844 107.523 102.831C107.523 104.817 109.138 106.426 111.13 106.426C113.122 106.426 114.736 104.816 114.736 102.831ZM108.902 102.831C108.902 101.604 109.899 100.61 111.13 100.61C112.361 100.61 113.356 101.604 113.356 102.831C113.356 104.057 112.359 105.05 111.13 105.05C109.9 105.05 108.902 104.056 108.902 102.831Z" fill="#C8D5DD"/>
<path d="M113.356 102.831C113.356 101.604 112.359 100.61 111.13 100.61C109.9 100.61 108.902 101.604 108.902 102.831C108.902 104.057 109.899 105.05 111.13 105.05C112.361 105.05 113.356 104.056 113.356 102.831Z" fill="#9DB5C3"/>
<path d="M127.092 95.6618C124.73 95.6618 122.64 96.8028 121.329 98.5567C121.283 98.6174 121.237 98.676 121.193 98.7382C120.49 99.7429 120.04 100.935 119.932 102.224C119.915 102.425 119.901 102.626 119.901 102.831C119.901 104.262 120.326 105.592 121.052 106.71C122.332 108.687 124.556 109.999 127.092 109.999C129.628 109.999 131.915 108.648 133.186 106.623C133.877 105.522 134.283 104.225 134.283 102.83C134.283 102.625 134.269 102.424 134.253 102.223C134.144 100.933 133.694 99.7422 132.992 98.7375C132.472 97.994 131.817 97.3536 131.059 96.8523H131.058C129.921 96.101 128.559 95.6611 127.092 95.6611V95.6618ZM131.316 102.831C131.316 105.157 129.425 107.041 127.092 107.041C124.759 107.041 122.869 105.157 122.869 102.831C122.869 100.505 124.76 98.6202 127.092 98.6202C129.425 98.6202 131.316 100.505 131.316 102.831Z" fill="#3A4060"/>
<path d="M122.869 102.831C122.869 105.156 124.76 107.041 127.092 107.041C129.424 107.041 131.316 105.156 131.316 102.831C131.316 100.505 129.425 98.6196 127.092 98.6196C124.759 98.6196 122.869 100.505 122.869 102.831ZM130.699 102.831C130.699 104.816 129.085 106.426 127.092 106.426C125.1 106.426 123.485 104.816 123.485 102.831C123.485 100.845 125.1 99.2346 127.092 99.2346C129.085 99.2346 130.699 100.844 130.699 102.831Z" fill="#252840"/>
<path d="M123.486 102.831C123.486 104.816 125.101 106.426 127.093 106.426C129.085 106.426 130.699 104.816 130.699 102.831C130.699 100.845 129.085 99.2346 127.093 99.2346C125.101 99.2346 123.486 100.844 123.486 102.831ZM129.319 102.831C129.319 104.056 128.323 105.05 127.092 105.05C125.862 105.05 124.866 104.056 124.866 102.831C124.866 101.605 125.863 100.61 127.092 100.61C128.322 100.61 129.319 101.604 129.319 102.831Z" fill="#C8D5DD"/>
<path d="M124.866 102.831C124.866 104.056 125.863 105.05 127.092 105.05C128.322 105.05 129.319 104.056 129.319 102.831C129.319 101.605 128.322 100.61 127.092 100.61C125.862 100.61 124.866 101.604 124.866 102.831Z" fill="#9DB5C3"/>
<path d="M42.7648 95.6618C46.5313 95.6618 49.6157 98.5496 49.9252 102.225H51.7553C52.0648 98.5496 55.1491 95.6618 58.9156 95.6618V82.3582H51.8544V98.7389H51.035L50.156 93.9164H35.0443L34.3106 98.7389H26.4626V97.4235H24V102.225H35.6045C35.914 98.5496 38.9991 95.6618 42.7656 95.6618H42.7648Z" fill="#2C304B"/>
<path d="M49.9252 102.224C49.6157 98.5489 46.5313 95.6611 42.7648 95.6611C38.9984 95.6611 35.914 98.5489 35.6038 102.224C35.5868 102.425 35.5734 102.626 35.5734 102.831C35.5734 104.816 36.3843 106.613 37.6931 107.911C38.9935 109.201 40.7853 109.999 42.7648 109.999C45.0199 109.999 47.0306 108.963 48.3493 107.343C49.3529 106.111 49.9563 104.541 49.9563 102.831C49.9563 102.626 49.9422 102.425 49.9259 102.224H49.9252ZM42.7648 98.6195C45.0971 98.6195 46.9881 100.505 46.9881 102.831C46.9881 105.156 45.0971 107.041 42.7648 107.041C40.4326 107.041 38.5409 105.156 38.5409 102.831C38.5409 100.505 40.4319 98.6195 42.7648 98.6195Z" fill="#3A4060"/>
<path d="M42.7648 107.041C45.0971 107.041 46.9881 105.156 46.9881 102.831C46.9881 100.505 45.0971 98.6196 42.7648 98.6196C40.4326 98.6196 38.5409 100.505 38.5409 102.831C38.5409 105.156 40.4319 107.041 42.7648 107.041ZM42.7648 99.2353C44.7571 99.2353 46.3712 100.844 46.3712 102.831C46.3712 104.818 44.7571 106.427 42.7648 106.427C40.7726 106.427 39.1585 104.817 39.1585 102.831C39.1585 100.846 40.7726 99.2353 42.7648 99.2353Z" fill="#252840"/>
<path d="M39.1584 102.831C39.1584 104.816 40.7725 106.426 42.7648 106.426C44.7571 106.426 46.3712 104.816 46.3712 102.831C46.3712 100.845 44.7571 99.2346 42.7648 99.2346C40.7725 99.2346 39.1584 100.844 39.1584 102.831ZM42.7648 100.61C43.9943 100.61 44.9908 101.604 44.9908 102.831C44.9908 104.057 43.9943 105.05 42.7648 105.05C41.5353 105.05 40.5388 104.056 40.5388 102.831C40.5388 101.605 41.5353 100.61 42.7648 100.61Z" fill="#C8D5DD"/>
<path d="M40.5388 102.831C40.5388 104.056 41.5353 105.05 42.7648 105.05C43.9943 105.05 44.9908 104.056 44.9908 102.831C44.9908 101.605 43.9943 100.61 42.7648 100.61C41.5353 100.61 40.5388 101.604 40.5388 102.831Z" fill="#9DB5C3"/>
<path d="M66.0766 102.224C65.9675 100.934 65.5185 99.7429 64.8159 98.7382C63.517 96.8798 61.3604 95.6619 58.9162 95.6619C55.1498 95.6619 52.0654 98.5497 51.7559 102.225C51.7389 102.425 51.7255 102.626 51.7255 102.831C51.7255 104.457 52.2744 105.951 53.1894 107.153C54.5025 108.879 56.5762 110 58.9169 110C61.3972 110 63.5835 108.748 64.8761 106.843C65.6537 105.698 66.1077 104.318 66.1077 102.831C66.1077 102.626 66.0935 102.425 66.0773 102.224H66.0766ZM54.693 102.831C54.693 100.505 56.584 98.6196 58.9162 98.6196C61.2485 98.6196 63.1395 100.505 63.1395 102.831C63.1395 105.156 61.2485 107.041 58.9162 107.041C56.584 107.041 54.693 105.156 54.693 102.831Z" fill="#3A4060"/>
<path d="M63.1395 102.831C63.1395 100.505 61.2485 98.6196 58.9162 98.6196C56.584 98.6196 54.693 100.505 54.693 102.831C54.693 105.156 56.584 107.041 58.9162 107.041C61.2485 107.041 63.1395 105.156 63.1395 102.831ZM55.3099 102.831C55.3099 100.844 56.9247 99.2346 58.9162 99.2346C60.9078 99.2346 62.5226 100.844 62.5226 102.831C62.5226 104.817 60.9078 106.426 58.9162 106.426C56.9247 106.426 55.3099 104.816 55.3099 102.831Z" fill="#252840"/>
<path d="M62.5227 102.831C62.5227 100.844 60.9079 99.2346 58.9163 99.2346C56.9247 99.2346 55.3099 100.844 55.3099 102.831C55.3099 104.817 56.9247 106.426 58.9163 106.426C60.9079 106.426 62.5227 104.816 62.5227 102.831ZM56.6889 102.831C56.6889 101.604 57.6861 100.61 58.9163 100.61C60.1465 100.61 61.1423 101.604 61.1423 102.831C61.1423 104.057 60.1458 105.05 58.9163 105.05C57.6868 105.05 56.6889 104.056 56.6889 102.831Z" fill="#C8D5DD"/>
<path d="M61.1423 102.831C61.1423 101.604 60.1458 100.61 58.9163 100.61C57.6868 100.61 56.6888 101.604 56.6888 102.831C56.6888 104.057 57.686 105.05 58.9163 105.05C60.1465 105.05 61.1423 104.056 61.1423 102.831Z" fill="#9DB5C3"/>
<path d="M28.5469 90.5535H26.4625V94.4813H28.5469V90.5535Z" fill="#FFE79B"/>
<path d="M29.588 90.5535H28.5461V94.4813H29.588V90.5535Z" fill="#F49B7F"/>
<path d="M49.7517 86.8044H44.5525V88.4277H49.7517V86.8044Z" fill="#DEDAD7"/>
<path d="M43.4157 69.032H43.1628V93.9158H43.4157V69.032Z" fill="#DEDAD7"/>
<path d="M49.7517 77.4639L44.5525 74.7117V78.624L49.7517 81.3769V77.4639Z" fill="#D7ECF7"/>
<path d="M49.7517 84.4764V82.385L44.5525 79.6321V81.7242L49.7517 84.4764Z" fill="#D7ECF7"/>
<path d="M49.7517 74.1489L44.5525 71.396V73.4874L49.7517 76.241V74.1489Z" fill="#D7ECF7"/>
<path d="M42.1848 83.5077V79.6589L31.2007 73.8438L30.4117 77.2745L42.1848 83.5077Z" fill="#D7ECF7"/>
<path d="M30.2084 78.1592L29.787 79.9928L42.1847 86.5571V84.4989L30.2084 78.1592Z" fill="#D7ECF7"/>
<path d="M42.1848 76.3983L32.3806 71.208C32.324 71.2588 32.268 71.316 32.2128 71.3761C32.2 71.3895 32.188 71.4043 32.1752 71.4184C32.1278 71.4721 32.081 71.5293 32.0343 71.5907C32.0244 71.6034 32.0145 71.6147 32.0053 71.6281C31.9536 71.7001 31.9026 71.7771 31.853 71.8583C31.8395 71.8809 31.8268 71.9049 31.8133 71.9275C31.7765 71.9917 31.7411 72.0595 31.7064 72.1294C31.6922 72.1591 31.6773 72.188 31.6639 72.2184C31.6207 72.3123 31.5796 72.4104 31.5414 72.5156C31.5322 72.5418 31.5237 72.5707 31.5137 72.5975C31.4939 72.6554 31.4734 72.7133 31.455 72.7748L31.4585 72.7762L42.1848 78.4551V76.3976V76.3983Z" fill="#D7ECF7"/>
<path d="M89.5902 97.4229H83.709V104.236H89.5902V97.4229Z" fill="#3A4060"/>
<path d="M96.9105 97.4229H91.0293V104.236H96.9105V97.4229Z" fill="#3A4060"/>
</g>
<defs>
<clipPath id="clip0_404_1594">
<rect width="117" height="50" fill="white" transform="translate(24 60)"/>
</clipPath>
</defs>
</svg>
