<svg width="32" height="90" viewBox="0 0 32 90" fill="none" xmlns="http://www.w3.org/2000/svg">
<g clip-path="url(#clip0_320_1557)">
<path d="M1.729 32.724L1.64266 82.2599C1.6356 86.309 4.90806 89.5973 8.9519 89.6043L22.3965 89.6278C26.4403 89.6349 29.7242 86.3581 29.7313 82.309L29.8176 32.773C29.8247 28.7239 26.5522 25.4356 22.5084 25.4285L9.06381 25.4051C5.01997 25.398 1.73606 28.6748 1.729 32.724Z" fill="#2D2828"/>
<path d="M1.68453 34.2174L1.60336 80.7872C1.5963 84.8364 4.86876 88.1246 8.9126 88.1317L22.3363 88.1552C26.3801 88.1622 29.6641 84.8854 29.6711 80.8363L29.7523 34.2664C29.7593 30.2173 26.4869 26.929 22.443 26.922L9.01933 26.8985C4.97549 26.8914 1.69159 30.1682 1.68453 34.2174Z" fill="#0079E2"/>
<path d="M1.41689 8.72642L1.4079 14.4602C1.40557 15.9426 2.60382 17.1462 4.08426 17.1485L27.9278 17.186C29.4082 17.1883 30.6102 15.9885 30.6126 14.5061L30.6215 8.77235C30.6239 7.28996 29.4256 6.08635 27.9452 6.08403L4.10167 6.04652C2.62123 6.0442 1.41922 7.24402 1.41689 8.72642Z" fill="#595050"/>
<path d="M15.6767 63.176C18.5569 63.176 20.8918 60.838 20.8918 57.9539C20.8918 55.0699 18.5569 52.7319 15.6767 52.7319C12.7964 52.7319 10.4615 55.0699 10.4615 57.9539C10.4615 60.838 12.7964 63.176 15.6767 63.176Z" fill="white"/>
<path d="M2.18474 5.54267L2.18473 5.55311C2.17992 8.61595 4.65568 11.1028 7.71448 11.1076L24.9869 11.1348C28.0457 11.1396 30.5293 8.66054 30.5341 5.5977L30.5341 5.58726C30.5389 2.52441 28.0632 0.037587 25.0044 0.0327759L7.7319 0.00560857C4.67309 0.000797462 2.18955 2.47982 2.18474 5.54267Z" fill="#595050"/>
<path d="M2.60755 5.34741L0.260742 7.43622" stroke="#333333" stroke-width="0.75" stroke-miterlimit="10"/>
<path d="M31.781 8.10459L29.1838 6.3291" stroke="#333333" stroke-width="0.75" stroke-miterlimit="10"/>
<path d="M1.87001 7.30907L1.85183 18.9019C1.84663 22.2186 4.52753 24.9114 7.83979 24.9167L24.1944 24.9424C27.5067 24.9476 30.196 22.2632 30.2012 18.9465L30.2194 7.35366C30.2246 4.03703 27.5437 1.34414 24.2314 1.33893L7.87682 1.3132C4.56456 1.30799 1.87522 3.99244 1.87001 7.30907Z" fill="#F0EFEC"/>
</g>
<defs>
<clipPath id="clip0_320_1557">
<rect width="32" height="89.641" fill="white"/>
</clipPath>
</defs>
</svg>
