<svg width="31" height="32" viewBox="0 0 31 32" fill="none" xmlns="http://www.w3.org/2000/svg">
<g clip-path="url(#clip0_439_3084)">
<path d="M0 7.8804C0.0208124 6.36253 0.551527 5.04739 1.43605 3.97137C2.40383 2.79138 3.5329 1.71016 4.7244 0.753697C5.97835 -0.25475 7.50285 -0.104003 8.67875 1.00321C9.15223 1.45025 9.55807 1.99606 9.89107 2.56266C10.7184 3.97657 11.4988 5.41646 12.2793 6.85636C13.4396 9.00321 12.5082 11.2228 10.1564 11.935C8.85566 12.33 8.57989 12.7927 9.08459 14.0818C10.1356 16.7693 12.066 18.807 14.1836 20.6679C14.8912 21.2917 15.6977 21.7959 16.4678 22.3417C17.1286 22.8096 17.7737 22.7732 18.3357 22.1806C18.856 21.6348 19.3607 21.0734 19.8342 20.486C20.6927 19.4204 21.6292 19.1293 22.8207 19.7894C23.6064 20.2261 24.3869 20.7771 24.9748 21.4477C26.1403 22.768 27.1601 24.2131 28.258 25.5906C29.0228 26.5523 29.0488 27.6387 28.4557 28.5952C27.9458 29.4165 27.2382 30.2586 26.4109 30.7212C23.9082 32.1195 21.2442 32.421 18.4918 31.345C15.5572 30.1962 13.0806 28.3716 10.8536 26.204C6.80564 22.2638 3.09584 18.0584 1.19151 12.6107C0.655589 11.0773 0.390232 9.45545 0 7.87001L0 7.8804ZM21.6553 31.0383C23.0653 30.5861 24.4961 30.1494 25.9114 29.6504C26.2496 29.5308 26.541 29.2345 26.8011 28.9642C27.7377 27.9922 27.8313 27.1085 27.0509 26.0221C26.26 24.92 25.4587 23.8232 24.5742 22.8044C24.0018 22.1442 23.315 21.562 22.6022 21.0578C21.7489 20.4548 21.3431 20.5952 20.6875 21.3853C20.1464 22.035 19.5844 22.6848 18.9601 23.2514C18.0963 24.0311 17.0973 24.1455 16.0827 23.5269C12.5863 21.3905 9.79741 18.5627 8.06479 14.8252C7.071 12.6835 7.69537 11.4879 9.91709 10.7446C11.4468 10.2352 11.9879 8.85246 11.2075 7.42816C10.453 6.04544 9.69856 4.66273 8.91809 3.29041C8.68916 2.87975 8.4186 2.47949 8.10641 2.13121C7.2375 1.16435 6.30094 1.04479 5.27593 1.82972C4.47986 2.44311 3.6994 3.09808 3.0334 3.84661C1.74303 5.29691 0.998993 6.96552 1.5141 8.96682C1.8471 10.2768 2.08124 11.6283 2.59114 12.8707C4.95854 18.651 9.05337 23.1215 13.7466 27.0825C14.9641 28.1065 16.3689 28.959 17.7894 29.6816C18.9444 30.2742 20.2608 30.5601 21.6605 31.0331L21.6553 31.0383Z" fill="#373CB4"/>
<path d="M16.577 17.6998C16.577 16.0935 16.6031 14.6276 16.5614 13.1617C16.551 12.7927 16.4261 12.3352 16.1868 12.0753C12.2897 7.90639 14.1888 1.77254 19.9382 0.311848C22.545 -0.353519 25.0216 0.0519392 27.3006 1.46584C30.0738 3.18644 31.4319 6.10262 30.8803 9.0136C30.36 11.7426 27.9562 14.035 24.8916 14.6328C24.0643 14.794 23.1902 14.8875 22.3577 14.8096C21.5356 14.7368 20.906 14.9655 20.2504 15.397C19.0797 16.1767 17.8674 16.894 16.577 17.6946V17.6998ZM17.7842 15.4853C18.5698 15.0123 19.2202 14.6848 19.7873 14.2586C20.5574 13.6868 21.3379 13.4632 22.3212 13.5672C23.211 13.6608 24.1683 13.5828 25.0321 13.3437C27.3318 12.7043 29.0488 11.3424 29.6316 8.92523C30.2039 6.55486 29.2518 4.66272 27.5035 3.12406C25.0425 0.951225 21.1297 0.608144 18.3045 2.27156C15.2815 4.04934 14.3137 7.71406 16.4782 10.3547C17.6124 11.7374 17.9819 13.063 17.7842 14.7004C17.7633 14.8823 17.7842 15.0695 17.7842 15.4853Z" fill="#373CB4"/>
<path d="M18.9861 8.04681C18.3721 7.96884 17.935 7.58938 17.8986 6.85123C17.8622 6.15468 18.4397 5.58808 19.1473 5.62446C19.8862 5.66085 20.3024 6.06631 20.3284 6.80965C20.3545 7.5322 19.8133 8.06241 18.9861 8.04681Z" fill="#373CB4"/>
<path d="M23.877 7.32429C23.903 8.00525 23.3307 8.61864 22.6438 8.58745C21.9102 8.55626 21.4627 8.1456 21.4471 7.40746C21.4315 6.69011 21.7957 6.21188 22.5606 6.1599C23.2838 6.10791 23.8562 6.61734 23.8822 7.32429H23.877Z" fill="#373CB4"/>
<path d="M27.3838 7.87528C27.3578 8.61862 26.9624 9.04487 26.2444 9.12804C25.5732 9.20601 24.954 8.61342 24.928 7.94285C24.902 7.26709 25.4795 6.67969 26.1819 6.70049C26.9312 6.72648 27.311 7.15273 27.3838 7.87528Z" fill="#373CB4"/>
</g>
<defs>
<clipPath id="clip0_439_3084">
<rect width="31" height="32" fill="white"/>
</clipPath>
</defs>
</svg>
