<svg width="45" height="38" viewBox="0 0 45 38" fill="none" xmlns="http://www.w3.org/2000/svg">
<g clip-path="url(#clip0_439_3061)">
<path d="M45 24.7993C44.7337 25.5529 44.5154 26.3276 44.2013 27.0653C42.3855 31.3127 37.689 33.6683 33.1896 32.6091C28.5144 31.5077 25.4313 27.3657 25.7401 22.5861C26.0277 18.091 29.7444 14.2704 34.2652 13.8225C39.0468 13.3482 43.3759 16.2308 44.6432 20.7258C44.755 21.1263 44.8828 21.5216 45 21.9221V24.7993ZM35.4047 14.8923C30.7188 14.8606 26.8956 18.5758 26.8477 23.2079C26.7998 27.9085 30.6283 31.7238 35.394 31.729C40.0319 31.729 43.8445 27.9506 43.8711 23.308C43.8977 18.7075 40.0905 14.9239 35.4047 14.8923Z" fill="#373CB4"/>
<path d="M22.2097 6.17084C24.8721 6.17084 27.5346 6.17084 30.197 6.17084C30.4685 6.17084 30.772 6.12341 31.001 6.22354C31.2087 6.31312 31.4323 6.5608 31.4696 6.76632C31.4909 6.90333 31.23 7.15101 31.0436 7.25113C30.8732 7.34072 30.6336 7.30383 30.4206 7.30383C24.9733 7.30383 19.526 7.30383 14.0788 7.30383C13.9297 7.30383 13.738 7.3618 13.6315 7.29329C13.3865 7.1352 13.1895 6.91387 12.9712 6.71362C13.1735 6.53445 13.3546 6.28677 13.5889 6.19719C13.8285 6.1076 14.1267 6.17084 14.3982 6.17084C17.0021 6.17084 19.6006 6.17084 22.2044 6.17084H22.2097Z" fill="#373CB4"/>
<path d="M22.4387 11.8042C25.1331 11.8042 27.8221 11.7989 30.5165 11.8042C30.9637 11.8042 31.6187 11.6355 31.608 12.3786C31.5974 13.032 31.001 12.9161 30.5644 12.9161C25.0905 12.9161 19.6112 12.9266 14.1373 12.9055C13.8019 12.9055 13.2428 12.7158 13.1735 12.4998C12.9712 11.8569 13.5197 11.8042 13.9989 11.8042C16.8104 11.8042 19.6272 11.8042 22.4387 11.8042Z" fill="#373CB4"/>
<path d="M26.1768 17.5429C26.0331 18.2279 25.687 18.5546 24.8829 18.5441C21.3472 18.502 24.8616 18.5283 21.3259 18.523C21.0863 18.523 20.8147 18.5652 20.6124 18.4756C20.426 18.3966 20.2024 18.1647 20.1917 17.9908C20.1864 17.8169 20.4154 17.6219 20.5645 17.4585C20.6124 17.4058 20.7349 17.4164 20.8254 17.4164C24.9308 17.4269 21.9915 17.4427 26.097 17.4638C26.1129 17.4638 26.1342 17.5007 26.1715 17.5429H26.1768Z" fill="#373CB4"/>
<path d="M31.9701 26.8334C31.7412 25.732 32.1671 24.6834 32.7475 23.6294C33.7007 21.901 34.526 20.0987 35.4845 18.3755C36.2513 16.9948 38.2055 16.9158 38.9882 18.2701C39.2864 18.7865 39.3929 19.6666 39.1533 20.1883C38.1416 22.4227 37.1139 24.6781 35.788 26.728C35.1331 27.7398 33.8391 28.3774 32.7742 29.0941C32.3748 29.3629 32.0074 29.052 31.9754 28.5672C31.9382 28.0296 31.9648 27.4921 31.9648 26.8334H31.9701ZM35.0053 25.9218C35.7987 24.3725 36.5495 22.8969 37.3322 21.3687C36.7092 21.0736 36.2033 20.8365 35.6123 20.5572C34.8189 22.1012 34.0681 23.5767 33.296 25.0839C33.903 25.379 34.3876 25.6161 35.0053 25.9218ZM38.0351 20.457C38.0724 19.8194 38.2215 19.3346 38.0724 18.971C37.9712 18.718 37.4014 18.444 37.1299 18.5178C36.7518 18.6179 36.4589 19.0342 35.9957 19.4242C36.7358 19.7983 37.2364 20.0513 38.0351 20.4518V20.457Z" fill="#373CB4"/>
<path d="M34.2865 35.9448C35.0054 35.4864 35.7988 35.0859 35.8041 33.8949C35.3621 34.0108 34.8616 33.9898 34.6859 34.2111C34.2493 34.7749 33.7061 34.8329 33.0831 34.8329C29.5581 34.8329 27.8009 34.8329 24.2759 34.8329V35.9501H34.2812L34.2865 35.9448Z" fill="#373CB4"/>
<path d="M34.2865 0H10.3195L8.68481 1.61781V11.4406H9.80835C9.80835 5.85994 9.80835 8.31036 9.80835 2.72972C9.80835 1.48079 10.1651 1.11718 11.4218 1.11718C18.6848 1.11718 25.9479 1.11718 33.2056 1.11718C34.409 1.11718 34.7924 1.48606 34.7924 2.66648C34.803 5.63334 34.7924 8.59492 34.7924 11.5618C34.7924 11.8832 34.7924 12.2047 34.7924 12.5683H35.9159C35.9159 12.1836 35.9159 11.8622 35.9159 11.5354C35.9159 8.68978 35.868 5.84413 35.9372 3.00374C35.9692 1.62835 35.5591 0.611288 34.2812 0.00526973L34.2865 0Z" fill="#373CB4"/>
<path d="M2.92867 28.9255C2.92867 29.6264 2.93932 30.2008 2.92867 30.7804C2.90737 31.6552 2.45476 32.0821 1.55487 32.1031C0.585753 32.1242 0.0266471 31.7237 0.0213223 30.8648C2.30186e-05 27.4236 -0.0053018 23.9772 0.0213223 20.5361C0.0266471 19.6877 0.596402 19.2924 1.56552 19.3135C2.41749 19.3346 2.9127 19.772 2.92335 20.5782C2.94464 21.8535 2.92335 23.1288 2.92335 24.5147C4.1161 24.5147 5.25561 24.5253 6.40045 24.5042C6.52824 24.5042 6.67201 24.3566 6.77851 24.246C7.19917 23.8139 7.60918 23.3712 8.04049 22.9075C7.35892 21.1632 7.74763 20.5941 9.9308 20.2831V17.369C8.97766 17.369 8.04582 17.369 7.11397 17.369C6.09161 17.3637 5.63368 16.9158 5.62835 15.9303C5.62835 14.9502 6.09161 14.4548 7.08203 14.4496C9.33975 14.439 11.5975 14.439 13.8499 14.4496C14.8403 14.4496 15.3035 14.9449 15.2982 15.9303C15.2982 16.9 14.8296 17.3584 13.8126 17.3637C12.8967 17.369 11.9809 17.3637 11.0011 17.3637V20.299C11.688 20.4149 12.5293 20.1567 12.9553 20.9471C13.3121 21.6111 13.2322 22.2856 12.8435 22.8548C13.3121 23.3501 13.7167 23.8349 14.18 24.2512C14.3557 24.4093 14.6646 24.4937 14.9148 24.4937C16.7466 24.5147 18.5836 24.4989 20.4154 24.5042C21.5655 24.5042 21.9915 24.9258 21.9968 26.0588C22.0075 27.2708 22.0128 28.4776 21.9968 29.6896C21.9809 30.6592 21.5442 31.0755 20.5591 31.0966C19.9255 31.1072 19.2918 31.1019 18.6528 31.0966C17.4814 31.0861 17.114 30.7172 17.0874 29.5473C17.0874 29.3629 17.0661 29.1837 17.0448 28.9097C16.2034 28.9097 15.3887 28.8886 14.574 28.9255C14.409 28.9308 14.212 29.1047 14.0948 29.2522C12.0714 31.7501 8.82324 31.7395 6.80513 29.2259C6.68799 29.0836 6.48565 28.9255 6.31525 28.9202C5.21302 28.8939 4.1161 28.9044 2.92335 28.9044L2.92867 28.9255ZM2.97127 25.4738V27.9664C4.2226 27.9664 5.43666 27.9769 6.65072 27.9611C7.00748 27.9611 7.2258 28.0349 7.42814 28.3774C8.84986 30.7962 12.0501 30.7752 13.5304 28.3669C13.6369 28.1983 13.8552 27.9875 14.0256 27.9822C15.3355 27.9506 16.6454 27.9664 18.0245 27.9664C18.0245 28.5408 18.0405 29.0414 18.0245 29.5473C18.0032 30.0374 18.2162 30.2113 18.6954 30.1902C19.2599 30.1639 19.8243 30.1586 20.3834 30.1902C20.9212 30.2218 21.0756 29.9794 21.065 29.4841C21.0437 28.3933 21.033 27.2971 21.065 26.2063C21.0863 25.6161 20.8573 25.4475 20.2822 25.458C18.2854 25.4844 16.2886 25.4844 14.2971 25.4527C14.0362 25.4527 13.6635 25.2683 13.5304 25.0575C12.0288 22.6598 8.87649 22.6545 7.39086 25.0575C7.26839 25.2578 6.94358 25.4475 6.70396 25.458C5.48458 25.5002 4.2652 25.4791 2.96594 25.4791L2.97127 25.4738ZM1.9915 25.7637C1.9915 24.1617 1.9915 22.5597 1.9915 20.9629C1.9915 20.5993 2.00748 20.2673 1.46435 20.2673C0.921216 20.2673 0.942515 20.6046 0.942515 20.9682C0.942515 24.1248 0.942515 27.2813 0.942515 30.4326C0.942515 30.7857 0.894592 31.1493 1.4324 31.1704C2.0128 31.1915 1.98618 30.8121 1.98618 30.4274C1.98618 28.8728 1.98618 27.3182 1.98618 25.7637H1.9915ZM10.5219 15.4192C9.41962 15.4192 8.31738 15.4245 7.21515 15.4192C6.84241 15.4192 6.57084 15.4666 6.57617 15.9356C6.57617 16.3572 6.80513 16.431 7.1619 16.431C9.36637 16.4257 11.5762 16.4257 13.7806 16.431C14.1481 16.431 14.3504 16.3308 14.3451 15.9198C14.3451 15.5035 14.1268 15.4192 13.7647 15.4192C12.6837 15.4297 11.6081 15.4192 10.5272 15.4192H10.5219ZM10.5378 21.2949C10.1172 21.2949 9.69118 21.3055 9.27052 21.2949C8.86584 21.2791 8.66349 21.4952 8.76467 21.843C8.81791 22.038 9.08416 22.2962 9.27052 22.312C10.0639 22.3647 10.8626 22.3278 11.6614 22.3331C12.0501 22.3331 12.279 22.1486 12.1672 21.785C12.1086 21.59 11.8584 21.3582 11.656 21.316C11.2993 21.2422 10.9106 21.2949 10.5325 21.2949H10.5378Z" fill="#373CB4"/>
<path d="M19.6379 31.2442C20.2982 32.4405 21.017 33.6051 21.6081 34.8329C22.0873 35.8289 21.7518 36.8618 20.9052 37.5047C20.0639 38.1476 18.9403 38.1581 18.0937 37.5363C17.2471 36.9145 16.8796 35.8605 17.3429 34.8804C17.934 33.6262 18.6581 32.4352 19.3237 31.2179C19.4302 31.2232 19.5314 31.2337 19.6379 31.239V31.2442ZM19.5953 32.9833C19.5207 32.978 19.4462 32.9727 19.3717 32.9674C18.9989 33.6841 18.5836 34.3797 18.2588 35.1175C17.9499 35.8131 18.131 36.4033 18.6848 36.7827C19.2279 37.1569 19.7923 37.1463 20.3141 36.7511C20.8679 36.3243 20.9957 35.7499 20.7135 35.1333C20.378 34.4008 19.9734 33.6999 19.6006 32.9833H19.5953Z" fill="#373CB4"/>
</g>
<defs>
<clipPath id="clip0_439_3061">
<rect width="45" height="38" fill="white"/>
</clipPath>
</defs>
</svg>
