<svg width="45" height="38" viewBox="0 0 45 38" fill="none" xmlns="http://www.w3.org/2000/svg">
<g clip-path="url(#clip0_439_3056)">
<path d="M13.32 37.9936C9.16426 37.9936 5.00847 37.981 0.852679 38.0063C0.0442584 38.0063 -0.145215 37.5129 0.1011 36.9119C0.473732 35.9946 0.789521 35.0584 1.14321 34.1348C1.74952 32.566 2.85478 31.5095 4.45899 30.9908C5.21057 30.7504 5.97478 30.548 6.72005 30.3013C8.10321 29.8395 8.97478 28.8906 9.35373 27.4862C9.45478 27.1003 9.53057 26.7018 9.63794 26.3223C9.69478 26.1325 9.65689 26.0186 9.49899 25.8984C8.46952 25.114 7.74952 24.1082 7.32005 22.8873C7.24426 22.6848 7.10531 22.5014 6.98531 22.3179C6.33478 21.3374 5.82952 20.2873 5.52636 19.155C4.88215 16.7448 5.43163 14.6319 7.13689 12.8037C8.98742 10.8237 11.2295 9.62807 13.9264 9.32442C14.3937 9.27381 14.8864 9.30544 15.3474 9.38768C16.1622 9.53318 16.7243 10.0393 17.0022 10.8237C17.1411 11.2159 17.3243 11.412 17.7916 11.3677C18.3853 11.3108 18.8527 11.6397 19.2379 12.0762C20.52 13.5312 21.3537 15.2012 21.6253 17.1306C21.7958 18.3579 21.48 19.408 20.3811 20.1165C20.0148 20.3506 19.8758 20.6985 19.8695 21.1033C19.8632 21.4703 19.8822 21.8372 19.8822 22.2041C19.8822 22.5836 19.7306 22.8873 19.3895 23.096C19.2948 23.153 19.219 23.2668 19.1685 23.368C18.7264 24.3675 18.0822 25.2026 17.2169 25.8605C17.0464 25.9933 16.9706 26.1072 17.0464 26.3349C17.16 26.7081 17.2232 27.094 17.3243 27.4673C17.7095 28.9032 18.6127 29.8521 20.0148 30.3139C20.6274 30.5164 21.2464 30.6998 21.8653 30.8706C23.76 31.3893 25.0106 32.5786 25.6548 34.4321C25.9516 35.2798 26.2737 36.1212 26.5895 36.9688C26.8358 37.6394 26.5895 37.9936 25.8695 37.9936C21.6885 37.9936 17.5137 37.9936 13.3327 37.9936H13.32ZM17.8422 17.1243C17.4948 17.2698 17.2295 17.3837 16.9643 17.4976C15.4232 18.1491 13.939 18.0795 12.5053 17.1876C12.1769 16.9851 11.8422 16.7827 11.4885 16.6119C10.5727 16.1754 9.29689 16.4095 8.57689 17.1306C8.2611 17.4469 8.22952 17.662 8.43794 18.0542C8.55163 18.2567 8.67794 18.4591 8.77899 18.6615C9.20215 19.4966 9.09478 20.281 8.45057 20.9642C8.28636 21.1413 8.09057 21.2931 7.93899 21.4386C8.13478 21.8308 8.35584 22.1914 8.5011 22.5773C9.24636 24.5826 11.1537 25.9427 13.2885 25.9554C15.4043 25.968 17.3306 24.6459 18.1011 22.6595C18.1895 22.4381 18.1832 22.2547 18.0758 22.0333C17.539 20.9262 17.3369 19.7559 17.539 18.5287C17.6148 18.0859 17.7158 17.643 17.8232 17.118L17.8422 17.1243ZM7.32005 20.2873C7.83794 19.952 7.92636 19.6484 7.64847 19.136C7.53478 18.9335 7.40847 18.7374 7.30742 18.5287C6.92847 17.7632 7.00426 17.0105 7.59163 16.3968C8.53268 15.4163 9.70742 15.0431 11.0464 15.1949C11.8232 15.2835 12.4674 15.6883 13.1053 16.0995C14.2232 16.8207 15.3727 16.865 16.5664 16.3336C16.8695 16.2007 17.1727 16.0616 17.4885 15.9477C18.4548 15.6124 19.1495 16.1375 19.0737 17.1496C19.0422 17.5924 18.9222 18.0226 18.8274 18.4591C18.72 18.9842 18.6885 19.5029 18.7643 20.0279C19.0485 19.7306 19.2758 19.3827 19.5979 19.1739C20.3748 18.6742 20.539 17.972 20.3937 17.1433C20.1095 15.5365 19.4022 14.1321 18.3348 12.9112C18.12 12.6645 17.88 12.5507 17.5453 12.5886C16.9958 12.6455 16.5348 12.4621 16.2253 11.9876C16.0864 11.7789 15.9727 11.5385 15.8843 11.3044C15.6948 10.7857 15.3095 10.558 14.7916 10.5327C14.5011 10.52 14.2106 10.5264 13.9264 10.558C11.6716 10.8553 9.77057 11.8548 8.19794 13.4869C6.90952 14.8217 6.24005 16.3526 6.59373 18.244C6.73268 18.9652 6.92215 19.6674 7.33268 20.2873H7.32005ZM5.56426 36.7348C5.72215 36.7411 5.84215 36.7538 5.96215 36.7538C7.0611 36.7538 8.16636 36.6968 9.259 36.7727C10.0737 36.8297 10.5916 36.5956 10.9958 35.8681C11.4064 35.1343 11.9432 34.4764 12.4422 33.7616C12.2337 33.6287 12.0506 33.5022 11.8611 33.3947C11.8106 33.3694 11.7158 33.382 11.6527 33.4073C11.1727 33.6224 10.92 33.5528 10.6611 33.0974C10.1874 32.2813 9.72005 31.4589 9.24636 30.6429C9.18952 30.5417 9.12005 30.4468 9.04426 30.3329C8.33057 30.9845 7.52847 31.364 6.64426 31.6044C6.06952 31.7626 5.49478 31.946 4.92005 32.1168C4.04847 32.3762 3.28426 32.8317 2.81689 33.6098C2.41268 34.274 2.14742 35.0331 1.83794 35.7543C1.70531 36.0642 1.61057 36.3868 1.49057 36.7285H4.32005C4.32005 36.583 4.32005 36.4628 4.32005 36.3362C4.32005 35.8049 4.32005 35.2672 4.32005 34.7358C4.32005 34.3752 4.54742 34.1348 4.88215 34.1222C5.22952 34.1032 5.48215 34.2993 5.52636 34.6599C5.55794 34.8876 5.54531 35.128 5.54531 35.362C5.54531 35.8175 5.54531 36.2667 5.54531 36.7474L5.56426 36.7348ZM21.3095 36.7538C21.3158 36.6019 21.3285 36.4817 21.3348 36.3615C21.3348 35.8175 21.3348 35.2735 21.3348 34.7231C21.3411 34.3562 21.5622 34.1285 21.9032 34.1158C22.2632 34.1032 22.5158 34.3183 22.5348 34.6915C22.5537 35.0331 22.5411 35.381 22.5411 35.7226C22.5411 36.0516 22.5411 36.3868 22.5411 36.7285H25.1432C25.1116 36.6083 25.0927 36.5134 25.0548 36.4185C24.8337 35.8112 24.6127 35.2102 24.3853 34.6093C23.899 33.3251 22.9895 32.5154 21.6822 32.0979C20.3558 31.674 18.9411 31.4779 17.8106 30.51C17.7285 30.6492 17.6653 30.7504 17.6085 30.8516C17.1979 31.5981 16.7874 32.3509 16.3706 33.0974C16.1179 33.5591 15.7958 33.6414 15.3537 33.382C15.2906 33.3441 15.1769 33.3188 15.1264 33.3504C14.9053 33.4706 14.7032 33.6161 14.4758 33.7616C15.1327 34.7041 15.7643 35.6024 16.3895 36.507C16.5158 36.6968 16.6611 36.7538 16.8822 36.7538C18.24 36.7474 19.5916 36.7538 20.9495 36.7538H21.3032H21.3095ZM10.8253 26.6765C10.6674 27.2458 10.5411 27.7709 10.3832 28.2896C10.2695 28.6692 9.97268 29.0551 10.0106 29.403C10.0548 29.7889 10.3895 30.1431 10.5979 30.51C10.8253 30.9086 11.059 31.3071 11.3116 31.7436C11.4127 31.6108 11.4822 31.5285 11.539 31.44C11.9874 30.7947 12.4358 30.1431 12.8906 29.4979C13.2064 29.0487 13.6548 29.0424 13.9895 29.4852C14.3495 29.9534 14.6906 30.4278 15.0443 30.9022C15.2464 31.1743 15.4548 31.4526 15.6885 31.7689C16.0927 31.0288 16.4779 30.3456 16.8443 29.6497C16.8822 29.5801 16.8253 29.4473 16.7874 29.3524C16.5474 28.7451 16.2885 28.1505 16.0611 27.5368C15.96 27.2711 15.9158 26.9802 15.8337 26.6702C15.019 26.9928 14.2043 27.1699 13.3516 27.1763C12.4864 27.1763 11.659 27.0118 10.819 26.6765H10.8253ZM13.459 34.4574C12.9222 35.2355 12.4169 35.963 11.8864 36.7221H15.0379C14.5011 35.9504 13.9958 35.2292 13.459 34.4574ZM13.459 30.8453C13.099 31.364 12.7832 31.8195 12.4485 32.3003C12.7769 32.5027 13.0548 32.6862 13.339 32.857C13.3895 32.8886 13.4779 32.9076 13.5222 32.8823C13.8506 32.6862 14.1727 32.4837 14.52 32.2687C14.16 31.7816 13.8316 31.3387 13.4653 30.8453H13.459Z" fill="#373CB4"/>
<path d="M35.5516 0C37.5348 0 39.5179 0 41.5074 0C43.8506 0 45.3474 1.81555 44.9369 4.13085C44.5137 6.50941 44.1284 8.89429 43.699 11.2728C43.4084 12.8796 42.0758 13.9993 40.4463 14.0057C37.9579 14.0183 35.4695 14.0057 32.9811 14.0246C32.7221 14.0246 32.4127 14.1322 32.2042 14.2903C30.4737 15.6061 28.7684 16.9536 27.0379 18.263C26.8232 18.4275 26.4821 18.5224 26.2169 18.4971C25.7621 18.4591 25.5348 18.0163 25.6737 17.5102C26.1727 15.6947 26.6084 13.8538 27.2148 12.0762C27.7263 10.5833 27.7958 9.17896 27.2716 7.67971C26.8737 6.54104 26.6463 5.34543 26.3621 4.17513C25.9137 2.30897 27.0127 0.49975 28.8758 0.101215C29.3874 -0.00632596 29.9306 0.0189779 30.4674 0.00632595C31.3137 -0.00632595 32.1663 0.00632595 33.0127 0.00632595C33.859 0.00632595 34.7116 0.00632595 35.5579 0.00632595L35.5516 0ZM27.1453 16.5613C27.3221 16.4475 27.4106 16.3969 27.4863 16.3399C28.6232 15.4606 30.4674 14.0942 31.6232 13.2402C31.8695 13.0631 32.2232 12.9429 32.5263 12.9429C35.1284 12.9176 37.7306 12.9302 40.3327 12.9302C41.2737 12.9302 42.4106 12.3609 42.5684 11.4626C42.9979 9.02714 43.4148 5.72499 43.8127 3.28317C43.9958 2.1698 42.7327 1.23356 41.6021 1.23356C37.6611 1.23356 33.72 1.25254 29.779 1.22091C28.4779 1.20826 27.5621 2.35958 27.9284 3.6311C28.44 5.39604 28.4148 7.54054 28.8442 9.33078C28.9263 9.67238 28.92 10.0709 28.8316 10.4188C28.5284 11.6208 27.9158 13.7969 27.5811 14.9862C27.4421 15.4796 27.3032 15.973 27.139 16.5613H27.1453Z" fill="#373CB4"/>
<path d="M36.7894 5.47825C36.7894 6.30063 36.7894 7.123 36.7894 7.93905C36.7894 8.52736 36.4926 8.84999 35.9873 8.84999C35.5073 8.84999 35.1979 8.52736 35.1979 7.96435C35.1915 6.28165 35.1915 4.59262 35.1979 2.90992C35.1979 2.33426 35.52 2.01163 36.0252 2.02428C36.5052 2.03694 36.7831 2.35956 36.7831 2.9289C36.7831 3.77657 36.7831 4.63058 36.7831 5.47825H36.7894Z" fill="#373CB4"/>
<path d="M35.16 10.2164C35.16 9.52054 35.4253 9.15363 35.9369 9.14731C36.3916 9.14098 36.7011 9.46993 36.7327 9.98233C36.7832 10.8237 36.5874 11.2032 36.0632 11.2665C35.4695 11.3361 35.16 10.9755 35.16 10.2164Z" fill="#373CB4"/>
</g>
<defs>
<clipPath id="clip0_439_3056">
<rect width="45" height="38" fill="white"/>
</clipPath>
</defs>
</svg>
