<svg width="38" height="38" viewBox="0 0 38 38" fill="none" xmlns="http://www.w3.org/2000/svg">
<g clip-path="url(#clip0_439_3041)">
<path d="M20.0331 5.20352C18.9152 5.20352 17.7873 5.10882 16.6843 5.22844C15.2519 5.37797 14.6381 3.84282 14.9176 2.84597C15.197 1.84912 16.2351 1.21612 17.2433 1.4753C17.5727 1.56003 17.7523 1.52514 17.9669 1.23107C19.2096 -0.463581 21.6501 -0.388817 22.803 1.37561C22.9727 1.63978 23.1374 1.77934 23.4718 1.81921C24.2254 1.90893 24.7095 2.37745 24.9341 3.09518C25.1437 3.76307 24.9042 4.60541 24.3602 5.00415C24.1855 5.13374 23.921 5.19854 23.6964 5.20352C22.4736 5.22346 21.2559 5.21349 20.0331 5.21349V5.20352ZM19.9932 4.34623C21.1311 4.34623 22.264 4.34623 23.4019 4.34623C23.9309 4.34623 24.2054 4.01229 24.1306 3.48395C24.0557 2.96061 23.6365 2.61669 23.0576 2.69644C22.6134 2.75625 22.4038 2.61171 22.249 2.203C21.9945 1.53511 21.4904 1.11145 20.7867 0.946965C19.7786 0.712705 18.8254 1.23605 18.3862 2.26281C18.1566 2.79114 17.9769 2.84597 17.4978 2.52698C17.4679 2.50704 17.4429 2.48212 17.413 2.46716C16.9837 2.21297 16.5545 2.21795 16.1603 2.52698C15.751 2.85095 15.6412 3.28957 15.786 3.77803C15.9357 4.28144 16.31 4.37614 16.7941 4.36617C17.8621 4.34125 18.9252 4.3562 19.9932 4.3562V4.34623Z" fill="#373CB4"/>
<path d="M3.82796 18.5813C4.29211 18.5813 4.75625 18.5913 5.21541 18.5813C5.5997 18.5713 5.79434 18.7358 5.78935 19.1296C5.78935 20.0716 5.78436 21.0136 5.78935 21.9556C5.78935 22.3693 5.59471 22.5388 5.19045 22.5338C4.28212 22.5238 3.3738 22.5288 2.46048 22.5388C2.03626 22.5438 1.82665 22.3793 1.83164 21.9307C1.84661 21.0236 1.84661 20.1164 1.83164 19.2043C1.82166 18.7358 2.03127 18.5564 2.48543 18.5763C2.92962 18.5963 3.37879 18.5763 3.82297 18.5763L3.82796 18.5813ZM3.83794 19.4386C3.07601 19.4386 2.69505 19.8157 2.69505 20.57C2.69505 20.57 2.69505 20.6049 2.69505 20.6199C2.69505 21.3243 3.0494 21.6765 3.75809 21.6765C4.53998 21.6765 4.93093 21.2894 4.93093 20.5152C4.93093 19.7975 4.5666 19.4386 3.83794 19.4386Z" fill="#373CB4"/>
<path d="M11.988 20.5551C11.988 21.0336 11.988 21.517 11.988 21.9955C11.988 22.3544 11.8133 22.5288 11.449 22.5288C10.4858 22.5288 9.52752 22.5288 8.56429 22.5288C8.20495 22.5288 8.03027 22.3544 8.03027 21.9955C8.03027 21.0336 8.03027 20.0766 8.03027 19.1146C8.03027 18.7557 8.20994 18.5813 8.56928 18.5813C9.53251 18.5813 10.4907 18.5813 11.454 18.5813C11.8183 18.5813 11.988 18.7557 11.988 19.1146C11.988 19.5931 11.988 20.0766 11.988 20.5551ZM8.88869 20.5252C8.88869 21.6765 8.88869 21.6865 10.0515 21.6715C11.3092 21.6616 11.1246 21.846 11.1346 20.585C11.1445 19.4386 11.1346 19.4386 9.96671 19.4386C9.24803 19.4386 8.88869 19.8008 8.88869 20.5252Z" fill="#373CB4"/>
<path d="M15.6961 6.53435C15.7011 6.91813 14.3536 8.30376 14.0542 8.27385C13.9194 8.26389 13.7297 8.1642 13.6898 8.05953C13.6349 7.92994 13.6499 7.6907 13.7347 7.59101C14.134 7.14741 14.5582 6.71876 15.0024 6.32002C15.1022 6.23031 15.3318 6.21535 15.4765 6.26021C15.5913 6.2951 15.6562 6.47454 15.7011 6.52936L15.6961 6.53435Z" fill="#373CB4"/>
<path d="M23.1873 6.59918C23.1024 6.75369 23.0625 6.88826 22.9777 6.98296C22.7132 7.27205 22.4536 7.58107 22.1392 7.81035C21.9895 7.92 21.715 7.86019 21.5004 7.87515C21.5004 7.66082 21.4255 7.38669 21.5303 7.24713C21.7799 6.9082 22.1043 6.61413 22.4287 6.33999C22.5335 6.25028 22.7581 6.22536 22.8978 6.26523C23.0126 6.30012 23.0825 6.47457 23.1873 6.60416V6.59918Z" fill="#373CB4"/>
<path d="M16.0006 10.2675C15.766 10.103 15.5814 10.0432 15.5414 9.92857C15.4865 9.78901 15.4965 9.56471 15.5764 9.45506C15.771 9.19588 16.0056 8.96162 16.2651 8.77222C16.3749 8.69247 16.6095 8.69745 16.7442 8.76225C16.844 8.81209 16.9638 9.07626 16.9189 9.13607C16.6444 9.51986 16.325 9.87872 16.0006 10.2725V10.2675Z" fill="#373CB4"/>
<path d="M18.481 7.79032C18.2414 7.62584 18.0618 7.56603 18.0168 7.45638C17.9619 7.31682 17.9669 7.09253 18.0518 6.98287C18.2464 6.72369 18.481 6.48943 18.7405 6.29504C18.8503 6.2153 19.0849 6.22028 19.2146 6.28508C19.3145 6.33492 19.4342 6.59908 19.3943 6.65391C19.1198 7.0377 18.8054 7.39158 18.481 7.79032Z" fill="#373CB4"/>
<path d="M20.7717 9.22079C20.3775 9.53978 20.0231 9.8488 19.6338 10.118C19.5789 10.1578 19.3194 10.0282 19.2695 9.92357C19.2096 9.79398 19.2096 9.5647 19.2895 9.45505C19.4791 9.19586 19.7137 8.9616 19.9732 8.76722C20.083 8.68747 20.3126 8.68747 20.4473 8.7423C20.5571 8.78716 20.612 8.97157 20.7667 9.21082L20.7717 9.22079Z" fill="#373CB4"/>
<path d="M18.4061 11.5833C17.947 11.9572 17.6376 12.2363 17.2832 12.4606C17.2433 12.4855 17.0037 12.2014 16.854 12.0618C17.1535 11.7628 17.4379 11.4488 17.7673 11.1896C17.8172 11.1497 18.0768 11.374 18.4061 11.5833Z" fill="#373CB4"/>
<path d="M25.2635 33.3646C25.2635 33.3646 25.2435 33.4095 25.2335 33.4344C25.1287 33.4394 25.0189 33.4195 24.9241 33.4543C24.3152 33.6736 23.7013 33.888 23.1074 34.1472C23.0026 34.192 22.9078 34.4612 22.9527 34.5758C23.0076 34.7154 23.2272 34.8998 23.342 34.8798C23.7413 34.8101 24.1555 34.7203 24.5049 34.5309C24.979 34.2718 25.4082 34.2419 25.8624 34.5309C26.6509 35.0343 27.4444 35.0393 28.233 34.5359C28.6822 34.2518 29.1214 34.2468 29.5855 34.5359C30.3741 35.0393 31.1776 35.0344 31.9661 34.5359C32.4303 34.2419 32.8495 34.2867 33.3236 34.5309C33.663 34.7054 34.0523 34.83 34.4316 34.8848C34.5713 34.9048 34.746 34.6605 34.9057 34.5359C34.7809 34.3764 34.6861 34.1721 34.5264 34.0774C34.2968 33.9378 33.9974 33.9129 33.7678 33.7783C32.9942 33.3247 32.2306 33.3297 31.477 33.7983C31.0029 34.0973 30.5537 34.1023 30.0796 33.7983C29.306 33.3098 28.5225 33.3048 27.7489 33.8032C27.2748 34.1073 26.8306 34.0774 26.3465 33.8032C26.0121 33.6138 25.6278 33.5092 25.2685 33.3646H25.2635Z" fill="#373CB4"/>
<path d="M25.2634 33.3646C25.6228 33.5092 26.0071 33.6138 26.3415 33.8032C26.8256 34.0774 27.2698 34.1073 27.7439 33.8032C28.5175 33.3048 29.301 33.3098 30.0746 33.7983C30.5487 34.0973 30.9979 34.0923 31.472 33.7983C32.2256 33.3247 32.9842 33.3198 33.7628 33.7783C33.9924 33.9129 34.2918 33.9378 34.5214 34.0774C34.6811 34.1771 34.7759 34.3814 34.9007 34.5359C34.741 34.6605 34.5663 34.9048 34.4266 34.8848C34.0473 34.83 33.658 34.7104 33.3186 34.5309C32.8495 34.2867 32.4253 34.2419 31.9611 34.5359C31.1776 35.0393 30.369 35.0393 29.5805 34.5359C29.1213 34.2419 28.6822 34.2468 28.228 34.5359C27.4345 35.0393 26.6459 35.0343 25.8574 34.5309C25.4032 34.2468 24.979 34.2767 24.4999 34.5309C24.1505 34.7203 23.7363 34.8101 23.337 34.8798C23.2222 34.8998 22.9976 34.7154 22.9477 34.5758C22.9028 34.4661 23.0026 34.192 23.1024 34.1472C23.6963 33.888 24.3102 33.6736 24.9191 33.4543C25.0139 33.4195 25.1237 33.4394 25.2285 33.4344C25.2385 33.4095 25.2485 33.3895 25.2585 33.3646H25.2634Z" fill="#373CB4"/>
<path d="M20.3825 33.1004C20.2827 33.0855 20.1679 33.0556 20.0481 33.0556C18.7555 33.0556 17.4678 33.0606 16.1752 33.0456C15.8159 33.0456 15.7011 33.1752 15.6961 33.5241C15.6861 34.2468 15.6362 34.2867 14.9275 34.2867C10.1962 34.2867 5.45997 34.2867 0.728685 34.2867C0.623878 34.2867 0.494117 34.3216 0.424246 34.2717C0.26454 34.1571 0.0249812 34.0076 0.0199904 33.863C0.0199904 33.7235 0.244577 33.5341 0.409273 33.4493C0.549016 33.3796 0.748648 33.4294 0.918336 33.4294C5.34019 33.4294 9.76704 33.4194 14.1889 33.4394C14.7029 33.4394 14.8626 33.3197 14.8527 32.7815C14.8177 30.8077 14.8277 28.8289 14.8527 26.8502C14.8577 26.3468 14.693 26.2222 14.2039 26.2222C9.74707 26.2421 5.29028 26.2321 0.828501 26.2321C0.658814 26.2321 0.459181 26.272 0.319439 26.2022C0.179696 26.1324 0.0100088 25.948 0.0100088 25.8135C0.0100088 25.6789 0.174705 25.4745 0.309457 25.4197C0.489126 25.3449 0.713713 25.3798 0.918336 25.3798C5.32522 25.3798 9.7321 25.3798 14.139 25.3798C14.6048 25.3798 14.8377 25.1439 14.8377 24.6721C14.8377 22.1301 14.8377 19.5831 14.8377 17.0412C14.8377 16.5793 14.5998 16.3483 14.124 16.3483C9.787 16.3483 5.44999 16.3483 1.11298 16.3483C0.908354 16.3483 0.69874 16.3483 0.494117 16.3384C0.20465 16.3334 -0.0249268 16.2337 -0.0149452 15.8948C2.71993e-05 15.5558 0.239586 15.4811 0.524062 15.4861C0.643841 15.4861 0.763621 15.4861 0.8834 15.4861C5.89417 15.4861 10.8999 15.4861 15.9107 15.4861C16.1103 15.4861 16.305 15.4711 16.6094 15.4562C16.4348 15.2568 16.3449 15.1422 16.2451 15.0375C13.9094 12.7049 11.5787 10.3622 9.22803 8.04457C9.02341 7.8452 8.66906 7.69567 8.38458 7.69567C5.87421 7.67075 3.35884 7.68072 0.848464 7.68072C0.658814 7.68072 0.444209 7.71062 0.289494 7.63586C0.154742 7.56608 0.0149996 7.37169 0.00501801 7.22217C-0.00496361 7.10254 0.159733 6.92809 0.289494 6.85831C0.414264 6.79352 0.588942 6.81844 0.743657 6.81844C3.39378 6.81844 6.04389 6.82342 8.69401 6.80847C9.11324 6.80847 9.40271 6.94803 9.68718 7.23712C12.3822 9.94357 15.0922 12.6301 17.7723 15.3465C17.9969 15.5708 18.1566 15.9695 18.1566 16.2885C18.1865 19.5183 18.1815 22.7531 18.1616 25.9829C18.1616 26.4714 18.2814 26.6359 18.7904 26.6309C21.2159 26.606 23.6415 26.6159 26.072 26.6209C26.3365 26.6209 26.5661 26.6408 26.6709 26.2919C26.7108 26.1624 26.9803 26.0228 27.15 26.0178C28.3029 25.9929 29.4558 25.9979 30.6086 26.0178C30.7783 26.0178 31.0678 26.1125 31.0928 26.2172C31.2075 26.7106 31.5669 26.6209 31.8963 26.6259C33.668 26.6259 35.4397 26.6309 37.2165 26.6359C37.3213 26.6359 37.451 26.596 37.5209 26.6458C37.6906 26.7704 37.8303 26.9349 37.9851 27.0795C37.8353 27.214 37.7006 27.4333 37.5309 27.4583C37.1815 27.5181 36.8122 27.4832 36.4479 27.4832C34.8808 27.4832 33.3137 27.5031 31.7515 27.4732C31.2824 27.4632 31.1427 27.6277 31.1776 28.0663C31.2075 28.4601 31.2026 28.8588 31.1776 29.2526C31.1576 29.6164 31.2974 29.7311 31.6567 29.7261C32.6898 29.7062 33.7229 29.6962 34.756 29.7361C35.0704 29.751 35.4397 29.8806 35.6693 30.08C37.9501 32.0637 37.9551 35.6474 35.6793 37.6361C35.4447 37.8405 35.0754 37.985 34.766 37.99C30.8233 38.0149 26.8855 38.0149 22.9428 37.99C22.6832 37.99 22.3688 37.8604 22.1692 37.6909C20.9664 36.6542 20.3825 35.3234 20.4124 33.7334C20.4124 33.564 20.4224 33.3895 20.4224 33.2201C20.4224 33.1902 20.3975 33.1603 20.3675 33.1004H20.3825ZM28.9317 37.1427C30.7883 37.1427 32.6499 37.1526 34.5065 37.1277C34.766 37.1277 35.0954 37.0081 35.2751 36.8337C36.947 35.1988 36.942 32.5073 35.2701 30.8725C35.1054 30.713 34.8259 30.5934 34.5963 30.5934C30.8133 30.5734 27.0252 30.5734 23.2422 30.5934C23.0126 30.5934 22.7332 30.713 22.5685 30.8725C20.9265 32.4026 20.8915 35.139 22.4587 36.7689C22.7132 37.038 22.9827 37.1576 23.362 37.1526C25.2186 37.1377 27.0801 37.1477 28.9367 37.1427H28.9317ZM22.4587 27.4782C21.3956 27.4782 20.3276 27.4682 19.2645 27.4782C17.9769 27.4932 18.2115 27.3137 18.1915 28.5797C18.1765 29.4719 18.4361 29.7111 19.3244 29.7161C21.196 29.7161 23.0725 29.7161 24.9441 29.7161C25.4731 29.7161 26.0021 29.6763 26.5262 29.6563C26.5561 29.0981 26.5761 28.5398 26.616 27.9816C26.6459 27.5978 26.4962 27.4732 26.1119 27.4782C24.8942 27.4981 23.6714 27.4832 22.4537 27.4832L22.4587 27.4782ZM15.7111 21.4423C15.7111 22.8678 15.7111 24.2933 15.7111 25.7188C15.7111 26.7505 15.6262 26.6159 16.6294 26.6159C17.3281 26.6159 17.3281 26.6159 17.3281 25.9082C17.3281 23.0572 17.3281 20.2012 17.3281 17.3502C17.3281 16.1241 17.4179 16.4032 16.305 16.3384C15.8109 16.3085 15.6961 16.4979 15.7011 16.9564C15.7261 18.4517 15.7111 19.947 15.7111 21.4423ZM21.5204 30.5784C20.7219 30.5784 20.0082 30.5435 19.2945 30.5884C18.0518 30.6681 17.2632 29.8258 17.3181 28.5897C17.373 27.3985 17.3281 27.4084 16.1054 27.4782C15.8209 27.4932 15.7111 27.5928 15.7111 27.8769C15.7211 29.1828 15.7211 30.4887 15.7111 31.7946C15.7111 32.0687 15.8009 32.2033 16.0954 32.2033C17.5227 32.1983 18.9501 32.2033 20.3775 32.1883C20.5172 32.1883 20.7069 32.0837 20.7817 31.969C21.0313 31.5603 21.2359 31.1317 21.5204 30.5834V30.5784ZM30.3441 28.2508C30.3441 27.9268 30.3292 27.5978 30.3441 27.2738C30.3641 26.9549 30.2293 26.8502 29.9199 26.8601C29.2511 26.8751 28.5824 26.8801 27.9136 26.8601C27.5593 26.8502 27.4694 27.0097 27.4844 27.3237C27.4994 27.6676 27.4844 28.0115 27.4844 28.3504C27.4844 29.2609 27.9436 29.7161 28.8619 29.7161C29.85 29.7161 30.3425 29.2277 30.3391 28.2508H30.3441Z" fill="#373CB4"/>
</g>
<defs>
<clipPath id="clip0_439_3041">
<rect width="38" height="38" fill="white"/>
</clipPath>
</defs>
</svg>
