<svg width="27" height="33" viewBox="0 0 27 33" fill="none" xmlns="http://www.w3.org/2000/svg">
<path d="M22.5794 9.30073C22.3708 8.93518 22.1733 8.58625 21.9648 8.22623C22.4038 7.97146 22.8263 7.72222 23.2763 7.4619C22.3708 6.07171 21.2404 4.93629 19.863 4.01687C19.6051 4.4655 19.3581 4.89198 19.1057 5.34061C18.749 5.13568 18.4033 4.93075 18.0411 4.72028C18.2935 4.27719 18.535 3.85072 18.7929 3.40209C18.738 3.36885 18.6996 3.34116 18.6502 3.31901C17.4429 2.72637 16.1753 2.34421 14.8363 2.18913C14.5345 2.15589 14.5509 2.13374 14.5399 2.46052C14.5235 2.84822 14.507 3.23039 14.4796 3.61255C14.4796 3.6624 14.4357 3.7344 14.3918 3.7621C14.1339 3.92272 13.8705 4.0778 13.607 4.2218C13.5631 4.24396 13.4808 4.24396 13.4369 4.2218C13.1735 4.0778 12.9156 3.92826 12.6632 3.76764C12.6138 3.7344 12.5699 3.65686 12.5699 3.59594C12.5424 3.16946 12.5205 2.74853 12.504 2.32205C12.504 2.21128 12.4656 2.16143 12.3449 2.17251C10.9675 2.32759 9.65043 2.69868 8.39925 3.31901C8.35535 3.34116 8.31693 3.36332 8.25108 3.40209C8.50351 3.83964 8.74497 4.27165 9.00289 4.72028C8.65168 4.92521 8.30596 5.13014 7.93828 5.34061C7.68585 4.90306 7.4389 4.47104 7.18098 4.02241C7.08221 4.08888 6.99441 4.13872 6.91209 4.19965C5.71578 5.04152 4.70605 6.07171 3.8829 7.29021C3.76766 7.4619 3.76766 7.46744 3.94875 7.57268C4.27801 7.76653 4.61276 7.95484 4.94202 8.14869C4.98592 8.17085 5.02433 8.19854 5.07921 8.23177C4.87616 8.58625 4.67861 8.93518 4.47008 9.30073C4.23411 9.16226 4.00363 9.02934 3.77863 8.90195C3.614 8.80779 3.44389 8.71363 3.28475 8.6084C3.18048 8.54194 3.13658 8.56409 3.08719 8.66932C2.62623 9.63305 2.27502 10.6411 2.09393 11.699C2.0171 12.1531 1.9732 12.6073 1.91283 13.0615C1.89088 13.2055 1.94575 13.2498 2.08843 13.2442C2.47806 13.2332 2.87317 13.2442 3.26279 13.2387C3.37255 13.2387 3.42193 13.2608 3.41645 13.3827C3.41096 13.6984 3.41096 14.0141 3.41645 14.3298C3.41645 14.4406 3.37804 14.4738 3.26829 14.4738C2.87866 14.4738 2.49452 14.4738 2.1049 14.4738C1.89636 14.4738 1.89088 14.4738 1.90734 14.6898C1.96222 15.4541 2.08295 16.2074 2.28599 16.9496C2.54391 17.9022 2.91707 18.805 3.39998 19.669C3.59205 20.0124 3.49877 20.4001 3.19146 20.5718C2.87317 20.7546 2.49452 20.6383 2.29697 20.2949C1.58357 19.0321 1.09517 17.6807 0.831762 16.2517C0.568355 14.8006 0.540911 13.3439 0.765905 11.8873C1.18845 9.1678 2.34636 6.81942 4.22863 4.83105C5.55664 3.42978 7.12062 2.38298 8.91509 1.69065C9.99616 1.26971 11.1102 1.0094 12.2626 0.898624C14.1613 0.715849 16.0161 0.931856 17.8161 1.5688C19.5941 2.2002 21.1581 3.18054 22.508 4.50981C23.9952 5.96647 25.0763 7.68899 25.7458 9.67182C26.1079 10.7463 26.322 11.854 26.3988 12.9895C26.5195 14.8726 26.2671 16.7003 25.5976 18.4561C25.3506 19.0986 25.0378 19.7189 24.725 20.3337C24.522 20.7325 23.9732 20.7712 23.6934 20.4389C23.5178 20.234 23.5123 19.946 23.644 19.6746C23.8854 19.1816 24.1434 18.6887 24.3519 18.1792C24.7744 17.1379 25.0269 16.0468 25.1202 14.9224C25.1256 14.8283 25.1366 14.7341 25.1476 14.64C25.1641 14.5181 25.1202 14.4738 24.9939 14.4738C24.6098 14.4793 24.2312 14.4738 23.847 14.4738C23.708 14.4738 23.6385 14.4037 23.6385 14.2633C23.6385 13.9643 23.6385 13.6707 23.6385 13.3716C23.6385 13.2664 23.6714 13.2332 23.7757 13.2387C24.1653 13.2387 24.5494 13.2387 24.9391 13.2387C25.1586 13.2387 25.1641 13.2387 25.1476 13.0171C25.0598 11.9427 24.8622 10.8959 24.4836 9.88229C24.3354 9.47797 24.1598 9.09026 23.9897 8.69148C23.9184 8.52532 23.9129 8.52532 23.7482 8.61948C23.3696 8.84102 22.9964 9.05703 22.5958 9.28965L22.5794 9.30073Z" fill="#373CB4"/>
<path d="M15.3519 10.3516C14.9678 9.94731 14.4245 9.01682 13.9745 9.0002C13.4587 8.98359 12.8276 9.98608 12.3721 10.4679C9.96852 13.0268 7.81187 15.8404 6.22594 18.9974C5.62229 20.1993 5.08451 21.5674 5.01317 22.8911C4.73878 27.9589 8.78868 32.1351 13.8099 32.1738C20.0494 32.3732 24.9114 25.5219 21.9591 19.6731C20.225 16.2392 17.964 13.1154 15.3519 10.3516ZM19.8573 28.0808C17.7445 30.5621 15.0172 31.3652 11.9276 30.4458C8.83258 29.5208 6.87897 27.0672 6.54971 23.8327C6.42349 22.592 6.81861 21.1741 7.36189 20.0165C8.98075 16.5604 11.0606 13.78 13.8593 10.6119C16.3891 13.6527 18.5677 16.5272 20.4225 19.6067C22.195 22.5477 21.9371 25.6216 19.8463 28.0753L19.8573 28.0808Z" fill="#373CB4"/>
<path d="M13.6565 29.2509C10.4956 29.057 8.09197 26.692 7.83954 23.5849C7.82856 23.4464 7.82308 23.3135 7.82857 23.175C7.84503 22.887 8.0371 22.6876 8.29502 22.6821C8.55294 22.6821 8.72305 22.8759 8.76696 23.1639C8.80537 23.7178 8.96452 24.327 9.20049 24.8754C10.0456 26.836 11.4504 27.9604 13.6674 28.3038C13.7552 28.3093 13.8485 28.3038 13.9363 28.3204C14.1997 28.3536 14.3479 28.5032 14.3534 28.7746C14.3534 29.0626 14.1997 29.2177 13.9254 29.2453C13.8156 29.2564 13.7004 29.2453 13.6565 29.2453V29.2509Z" fill="#373CB4"/>
<path d="M12.9705 23.9837C12.9705 23.175 12.9705 22.3719 12.9705 21.5633C12.9705 21.1036 12.932 17.1213 12.932 16.6561C12.932 16.3293 13.1515 16.0967 13.4479 16.1022C13.7332 16.1022 13.9527 16.3348 13.9527 16.6561C13.9527 17.8635 13.9912 22.5935 13.9912 23.8009C13.9912 23.8618 13.9912 23.9228 13.9912 24.028C14.1448 23.8729 14.946 23.0587 15.0722 22.9313C15.1491 22.8538 15.2259 22.7707 15.3082 22.6932C15.5277 22.4827 15.835 22.4827 16.0381 22.6876C16.2411 22.8981 16.2411 23.2027 16.0271 23.4243C15.6978 23.7621 14.6936 24.7812 14.3588 25.1136C14.1942 25.2797 14.0351 25.4459 13.8649 25.6065C13.629 25.8391 13.3326 25.8447 13.1022 25.6065C12.6028 25.108 11.4943 23.9781 11.0004 23.4741C10.7973 23.2637 10.7918 22.948 10.9894 22.7486C11.187 22.5381 11.5052 22.5381 11.7193 22.7486C11.9278 22.9535 12.74 23.7898 12.943 24.0003C12.954 23.9948 12.965 23.9892 12.9759 23.9781L12.9705 23.9837Z" fill="#373CB4"/>
<path d="M15.6925 28.974C15.9925 28.974 16.2357 28.7285 16.2357 28.4256C16.2357 28.1228 15.9925 27.8773 15.6925 27.8773C15.3924 27.8773 15.1492 28.1228 15.1492 28.4256C15.1492 28.7285 15.3924 28.974 15.6925 28.974Z" fill="#373CB4"/>
</svg>
