<svg width="43" height="43" viewBox="0 0 43 43" fill="none" xmlns="http://www.w3.org/2000/svg">
<path d="M0 26.0823C0.392336 25.247 1.05629 24.9564 1.96168 24.9988C3.04211 25.0472 4.12858 25.0109 5.20901 25.0109C6.39809 25.0109 6.92925 25.5375 6.9534 26.742C6.9534 26.8147 6.95943 26.8873 6.96547 26.9962H14.3776C14.3836 26.8389 14.4017 26.6815 14.4017 26.5241C14.4017 25.7614 14.4017 24.9927 14.4017 24.2301C14.4017 23.3766 14.5104 23.2676 15.3433 23.2676C16.5747 23.2676 17.812 23.2676 19.0796 23.2676V19.9385C16.1522 19.1456 13.9189 17.4266 12.5125 14.6906C11.414 12.56 11.1423 10.3023 11.6373 7.96584C12.6332 3.26272 16.8403 -0.0724481 21.6569 0.000187048C26.3951 0.0728222 30.4935 3.51089 31.3929 8.0869C32.4673 13.5466 28.9725 18.8006 23.9023 19.9627V23.2676C24.524 23.2676 25.1276 23.2676 25.7312 23.2676C26.4314 23.2676 27.1315 23.2676 27.8377 23.2676C28.4353 23.2676 28.5922 23.4371 28.5983 24.0364C28.5983 25.0109 28.5983 25.9854 28.5983 26.9962H36.0526C36.0526 26.8389 36.0526 26.6815 36.0526 26.5181C36.0768 25.6767 36.6381 25.0412 37.4711 25.023C38.8412 24.9927 40.2174 24.9927 41.5876 25.023C42.4206 25.0412 43 25.6767 43 26.5241C43 31.5057 43 36.4933 43 41.4748C43 42.3707 42.4085 42.9699 41.5091 42.9881C40.2295 43.0062 38.9499 43.0002 37.6703 42.9881C36.6321 42.982 36.0707 42.407 36.0526 41.3659C36.0526 41.2569 36.0526 41.154 36.0526 41.0088H6.9534C6.9534 41.1904 6.95943 41.3659 6.9534 41.5414C6.92322 42.3344 6.35584 42.9578 5.57117 42.9699C4.1829 43.0002 2.79464 42.9881 1.41241 42.9699C0.669989 42.9639 0.271617 42.4796 0.00603594 41.8501V26.0701L0 26.0823ZM11.8184 39.8406H31.1696V28.1705H11.8184V39.8406ZM30.4754 10.1207C30.4573 5.06649 26.4495 1.08366 21.4215 1.10787C16.4721 1.13208 12.5004 5.18149 12.5246 10.1873C12.5487 15.1022 16.5868 19.1274 21.4879 19.1153C26.4676 19.1032 30.4935 15.072 30.4754 10.1207ZM10.6715 39.8587V28.1645H6.98358V39.8587H10.6715ZM36.0104 39.8587V28.1645H32.3224V39.8587H36.0104ZM1.12268 31.4573V36.5357H5.83071V31.4573H1.12268ZM41.8713 36.5478V31.4573H37.1753V36.5478H41.8713ZM1.09854 37.6918C1.09854 38.975 1.09854 40.2158 1.09854 41.4506C1.09854 41.7957 1.30376 41.8925 1.60556 41.8925C2.855 41.8925 4.10444 41.8925 5.34784 41.8925C5.71603 41.8925 5.86693 41.723 5.86089 41.3598C5.84882 40.8998 5.86089 40.4459 5.86089 39.9858C5.86089 39.2292 5.86089 38.4726 5.86089 37.6918H1.09854ZM37.1451 37.6918C37.1451 38.981 37.1451 40.2401 37.1451 41.5051C37.1451 41.8259 37.3926 41.8864 37.6582 41.8864C38.8895 41.8864 40.1269 41.8864 41.3582 41.8864C41.7445 41.8864 41.9075 41.723 41.9015 41.3356C41.8894 40.464 41.9015 39.5984 41.9015 38.7268C41.9015 38.3818 41.9015 38.0428 41.9015 37.6918H37.1451ZM5.85486 30.3254C5.85486 29.024 5.85486 27.7771 5.85486 26.5241C5.85486 26.2396 5.68585 26.1065 5.41423 26.1065C4.12254 26.1065 2.82482 26.0944 1.53313 26.1246C1.38827 26.1246 1.12268 26.3546 1.11665 26.4878C1.08647 27.7529 1.09854 29.0119 1.09854 30.2951C1.20719 30.3072 1.27962 30.3254 1.35205 30.3254C2.82482 30.3254 4.30362 30.3254 5.84882 30.3254H5.85486ZM41.9015 30.3254C41.9015 29.0179 41.9015 27.7892 41.9015 26.5544C41.9015 26.2154 41.6962 26.1065 41.3944 26.1065C40.145 26.1065 38.9016 26.1065 37.6522 26.1065C37.284 26.1065 37.127 26.2759 37.1391 26.6452C37.1512 27.0749 37.1391 27.4986 37.1391 27.9284C37.1391 28.7153 37.1391 29.5082 37.1391 30.3314C37.3443 30.3314 37.4952 30.3314 37.6461 30.3314C39.0465 30.3314 40.4408 30.3314 41.8954 30.3314L41.9015 30.3254ZM22.7555 20.1746H20.2506V23.2374H22.7555V20.1746ZM20.993 26.9962C20.993 26.1791 21.0051 25.4164 20.9809 24.6538C20.9809 24.5509 20.7998 24.3753 20.6972 24.3753C20.0453 24.3511 19.3874 24.3511 18.7355 24.3753C18.6329 24.3753 18.4519 24.5267 18.4519 24.6114C18.4277 25.3983 18.4398 26.1852 18.4398 26.9962H20.993ZM24.5602 27.0205C24.5602 26.1791 24.5723 25.4164 24.5481 24.6538C24.5481 24.5509 24.3671 24.3753 24.2645 24.3753C23.6428 24.3511 23.015 24.3511 22.3933 24.3753C22.2907 24.3753 22.1096 24.5267 22.1096 24.6114C22.0855 25.3983 22.0976 26.1852 22.0976 27.0265H24.5602V27.0205ZM17.3352 27.0205C17.3352 26.5423 17.3473 26.1488 17.3352 25.7493C17.3231 25.3014 17.4499 24.6719 17.2145 24.448C16.967 24.2119 16.3513 24.3693 15.8987 24.3572C15.8504 24.3572 15.79 24.339 15.7659 24.3572C15.6753 24.4298 15.5244 24.5145 15.5244 24.5993C15.5063 25.3862 15.5124 26.173 15.5124 27.0144H17.3352V27.0205ZM27.4876 26.9962C27.4876 26.5423 27.4997 26.1488 27.4876 25.7554C27.4756 25.3075 27.6023 24.678 27.3669 24.454C27.1134 24.218 26.5038 24.3753 26.0511 24.3632C26.0028 24.3632 25.9424 24.3451 25.9183 24.3632C25.8278 24.4359 25.6769 24.5206 25.6769 24.6053C25.6588 25.3922 25.6648 26.1791 25.6648 26.9902H27.4876V26.9962Z" fill="#373CB4"/>
</svg>
