<svg width="35" height="31" viewBox="0 0 35 31" fill="none" xmlns="http://www.w3.org/2000/svg">
<path d="M34.0997 12.128C33.5893 9.67988 32.5138 7.51982 30.9059 5.62007C29.5449 4.01387 27.9425 2.73444 26.0493 1.82611C24.4634 1.06177 22.8061 0.552221 21.0445 0.435909C21.0006 0.435909 20.9567 0.3916 20.9074 0.369446H18.2733C17.6642 0.469141 17.0495 0.546682 16.4459 0.679609C13.9874 1.21686 11.7978 2.30243 9.8991 3.9751C8.33512 5.35421 7.06198 6.96042 6.17847 8.86017C5.61873 10.0621 5.1907 11.3027 4.97119 12.6043C5.36082 12.0837 5.8986 11.6849 6.52969 11.4855C8.1705 5.74746 13.3454 1.82057 19.0361 1.62118C27.0151 1.33871 32.9473 7.66936 33.1887 14.8142C33.4631 22.8009 27.1194 29.0983 19.5848 29.0706C18.7123 29.0706 17.8562 28.9876 17.0331 28.8269C16.9562 29.2534 16.8355 29.6633 16.6764 30.0565C17.1538 30.1451 17.6422 30.2116 18.1361 30.2448C18.18 30.2448 18.2239 30.2891 18.2733 30.3113H20.9074C21.5549 30.2005 22.2134 30.1119 22.85 29.9734C25.506 29.3808 27.8218 28.1291 29.7974 26.2349C31.1199 24.9665 32.201 23.5265 32.9802 21.8649C33.732 20.2642 34.2479 18.5915 34.3467 16.8081C34.3467 16.7638 34.3905 16.7195 34.418 16.6752V14.0166C34.3137 13.3908 34.2259 12.7538 34.0942 12.1335L34.0997 12.128Z" fill="#373CB4"/>
<path d="M19.0141 27.9241C19.1074 27.6195 19.2665 27.3537 19.5683 27.3426C19.9031 27.3315 20.0677 27.6084 20.1665 27.9241C20.3202 28.406 20.4903 28.5002 20.9896 28.478C21.2805 28.4282 21.5768 28.3728 21.8677 28.3229C24.8749 27.8023 27.3883 26.3844 29.3967 24.0693C31.707 21.4052 32.7826 18.298 32.629 14.7422C32.5741 13.4628 32.3546 12.2332 31.943 11.0313C31.1089 8.58325 29.6766 6.55611 27.6626 4.9499C25.8791 3.53201 23.8487 2.66799 21.6097 2.30244C21.2421 2.24151 20.825 2.1972 20.4957 2.31905C20.2872 2.39659 20.2269 2.81753 20.0512 3.05015C19.947 3.18862 19.7439 3.33816 19.5903 3.33816C19.4366 3.33816 19.261 3.172 19.1293 3.04461C19.0525 2.96707 19.036 2.81753 19.0031 2.70122C18.8824 2.2969 18.6025 2.16397 18.2184 2.23597C17.472 2.3689 16.7093 2.45198 15.9794 2.66245C13.2356 3.47109 10.9747 5.00529 9.21861 7.30382C8.25278 8.56663 7.56682 9.9236 7.12231 11.3636C7.23756 11.3526 7.35828 11.3415 7.47901 11.3415C7.79729 11.3415 8.1101 11.3913 8.40095 11.48C9.83323 7.25397 13.5319 4.13572 17.9001 3.55417C18.7068 4.93329 20.4354 4.98867 21.2805 3.55417C27.0535 4.31296 31.7455 9.61343 31.3997 16.0382C31.1089 21.4163 27.0316 26.3567 21.275 27.1377C20.3531 25.5979 18.5531 25.8859 17.933 27.1266C17.6696 27.0989 17.4117 27.0546 17.1538 27.0047V27.5974C17.1538 27.8355 17.1428 28.0682 17.1153 28.2952C17.4556 28.3562 17.8068 28.4115 18.158 28.4503C18.6793 28.5057 18.8659 28.4171 19.0086 27.9241H19.0141Z" fill="#373CB4"/>
<path d="M18.3392 15.6228C18.5971 15.1853 18.3062 14.6923 17.6148 14.6923C16.6435 14.6923 12.2918 14.6923 11.315 14.6923C11.2766 14.6868 11.9954 16.1767 11.957 16.005C12.5168 16.005 17.0276 16.005 17.5874 15.9828C17.8508 15.9773 18.2184 15.8222 18.3337 15.6173L18.3392 15.6228Z" fill="#373CB4"/>
<path d="M18.3391 18.5417C18.597 18.1042 18.3062 17.6112 17.6147 17.6112C16.6434 17.6112 13.9105 17.6112 12.9392 17.6112C12.9008 17.6057 13.6197 19.0956 13.5813 18.9239C14.141 18.9239 17.033 18.9239 17.5928 18.9017C17.8562 18.8962 18.2238 18.7411 18.3391 18.5362V18.5417Z" fill="#373CB4"/>
<path d="M18.3391 12.632C18.597 12.2055 18.2458 11.6959 17.6971 11.7015C16.5447 11.7181 15.3922 11.707 14.2398 11.707C13.1149 11.707 11.9899 11.707 10.8649 11.707C10.382 11.707 10.1076 11.9285 10.1021 12.3218C10.0966 12.7483 10.3546 13.0086 10.8485 13.0086C13.1149 13.0197 15.3813 13.0252 17.6477 12.9975C17.8891 12.9975 18.2294 12.8258 18.3501 12.6264L18.3391 12.632Z" fill="#373CB4"/>
<path d="M17.7245 20.7239C17.5324 20.735 14.6514 20.7294 14.4648 20.735L15.1453 21.9479C15.3374 21.9479 17.5379 21.9479 17.73 21.9479C18.1526 21.9479 18.4599 21.6655 18.4379 21.3165C18.416 20.9953 18.0977 20.7073 17.73 20.7239H17.7245Z" fill="#373CB4"/>
<path d="M18.4379 23.7536C18.4489 23.4212 18.147 23.1332 17.7684 23.1277C17.5654 23.1277 15.8807 23.1277 15.6721 23.1277L16.3142 24.3406C16.5172 24.3406 17.5654 24.3406 17.7684 24.3406C18.147 24.3406 18.4214 24.0859 18.4324 23.7591L18.4379 23.7536Z" fill="#373CB4"/>
<path d="M25.2151 14.6923C26.3949 14.6923 27.5748 14.6923 28.7546 14.6923C28.8754 14.6923 29.0016 14.6923 29.1223 14.7145C29.457 14.7865 29.704 14.9803 29.693 15.3514C29.682 15.7114 29.4516 15.9164 29.1058 15.9828C29.0235 15.9994 28.9412 15.9994 28.8589 15.9994C26.4279 15.9994 24.0023 15.9994 21.5713 15.9994C20.8634 15.9994 20.5945 15.501 20.8469 15.0689C20.9676 14.864 21.3353 14.7089 21.5932 14.7034C22.8005 14.6646 24.0078 14.6868 25.2151 14.6868V14.6923Z" fill="#373CB4"/>
<path d="M24.9243 18.9848C23.7829 18.9848 22.647 18.9682 21.5055 18.9903C20.9458 19.0014 20.5946 18.4863 20.8415 18.0765C20.9622 17.8771 21.2915 17.6943 21.5275 17.6943C23.8049 17.6666 26.0877 17.6721 28.3651 17.6832C28.8535 17.6832 29.106 17.9657 29.084 18.3977C29.0675 18.7854 28.7932 18.9903 28.2938 18.9903C27.1688 18.9903 26.0438 18.9903 24.9189 18.9903L24.9243 18.9848Z" fill="#373CB4"/>
<path d="M24.9682 11.7125C26.1041 11.7125 27.2455 11.7015 28.3815 11.7125C28.9193 11.7181 29.2211 12.1169 29.051 12.5876C28.9138 12.9698 28.5626 12.9975 28.2388 13.0086C27.6516 13.0307 27.059 13.0141 26.4718 13.0141C24.8694 13.0141 23.2615 13.0141 21.6591 13.0141C21.3298 13.0141 21.0006 12.9698 20.8305 12.6153C20.6494 12.2387 20.8195 11.8399 21.2366 11.7679C21.5823 11.707 21.9445 11.7125 22.2957 11.707C23.1847 11.7015 24.0792 11.707 24.9682 11.707C24.9682 11.707 24.9682 11.707 24.9682 11.7125Z" fill="#373CB4"/>
<path d="M24.0462 9.95124C23.1846 9.95124 22.3176 9.92355 21.456 9.96232C21.0829 9.97894 20.7701 9.69093 20.7481 9.36969C20.7207 9.02629 21.0335 8.73828 21.4506 8.73828C23.1792 8.73275 24.9023 8.73275 26.6309 8.73828C27.0809 8.73828 27.3333 8.97645 27.3333 9.36415C27.3333 9.71308 27.0589 9.94571 26.6309 9.94571C25.7693 9.94571 24.9078 9.94571 24.0407 9.94571L24.0462 9.95124Z" fill="#373CB4"/>
<path d="M15.1069 9.96235C14.2563 9.96235 13.4112 9.96235 12.5606 9.96235C12.1216 9.96235 11.8747 9.75189 11.8582 9.38634C11.8417 8.98756 12.0832 8.74939 12.5387 8.74939C14.2673 8.74385 15.9904 8.74385 17.719 8.74939C18.1471 8.74939 18.4599 9.02633 18.4324 9.36972C18.4105 9.69096 18.1251 9.99559 17.6971 9.97897C16.8355 9.9402 15.974 9.96789 15.1069 9.96789V9.96235Z" fill="#373CB4"/>
<path d="M24.0518 21.9479C23.1737 21.9479 22.2957 21.9479 21.4232 21.9479C21.0994 21.9479 20.8305 21.7984 20.7976 21.4827C20.7756 21.2778 20.9073 21.0285 21.039 20.8458C21.1049 20.7571 21.3079 20.735 21.4506 20.735C23.1792 20.7295 24.9024 20.7295 26.631 20.735C27.0645 20.735 27.3169 20.951 27.3279 21.3165C27.3389 21.7153 27.1029 21.9479 26.6474 21.9535C25.7859 21.9646 24.9188 21.9535 24.0573 21.9535L24.0518 21.9479Z" fill="#373CB4"/>
<path d="M22.8773 23.1221C23.3548 23.1221 23.8322 23.1166 24.3151 23.1221C24.7322 23.1277 24.9681 23.3658 24.9572 23.748C24.9517 24.1025 24.7102 24.3351 24.3151 24.3351C23.3548 24.3406 22.3944 24.3406 21.4341 24.3351C21.028 24.3351 20.7426 24.0692 20.7481 23.7258C20.7536 23.399 21.0664 23.1166 21.4396 23.1166C21.917 23.1166 22.3999 23.1166 22.8773 23.1166C22.8773 23.1166 22.8773 23.1166 22.8773 23.1221Z" fill="#373CB4"/>
<path d="M22.8883 5.76408C23.3657 5.76408 23.8486 5.75855 24.3261 5.76408C24.7376 5.77516 24.9517 5.98009 24.9571 6.35672C24.9626 6.71673 24.7322 6.96597 24.3425 6.97151C23.3712 6.98258 22.3999 6.98258 21.4286 6.97151C21.0335 6.97151 20.7426 6.6835 20.7536 6.35118C20.7646 6.01332 21.0554 5.76408 21.456 5.75854C21.9334 5.75854 22.4164 5.75854 22.8938 5.75854L22.8883 5.76408Z" fill="#373CB4"/>
<path d="M16.3252 5.76957C16.8191 5.76957 17.3075 5.76957 17.8013 5.76957C18.1416 5.76957 18.416 6.02989 18.4379 6.34005C18.4599 6.65575 18.1855 6.97146 17.8233 6.97699C16.8245 6.99361 15.8258 6.98807 14.827 6.97699C14.4484 6.97699 14.2124 6.70006 14.2234 6.34005C14.2289 6.01881 14.4813 5.78065 14.849 5.76957C15.3429 5.75849 15.8313 5.76957 16.3252 5.76957Z" fill="#373CB4"/>
<path d="M0.081665 28.2066C0.125566 27.6306 0.427386 27.1543 0.679818 26.6613C2.49623 23.0502 4.31265 19.4445 6.12906 15.8333C6.37052 15.3515 6.71624 14.997 7.24306 14.8641C7.98389 14.6757 8.6918 15.0191 9.07594 15.7447C9.60275 16.7361 10.1241 17.7331 10.6454 18.7245C12.149 21.588 13.6581 24.4459 15.1618 27.3094C15.2496 27.4811 15.3154 27.6694 15.3922 27.8466V28.7826C15.3703 28.8325 15.3483 28.8823 15.3319 28.9322C15.1343 29.4694 14.7886 29.8571 14.2398 30.0399C14.1575 30.0676 14.0697 30.0898 13.9874 30.1119H3.42914C3.37427 30.1064 3.31939 30.0953 3.27 30.0953C2.79257 30.0953 2.31513 30.0787 1.83771 30.0953C0.981632 30.1174 0.367014 29.5082 0.174946 28.8159C0.136532 28.6663 0.114591 28.5112 0.081665 28.3617C0.081665 28.3119 0.081665 28.262 0.081665 28.2122V28.2066ZM7.76987 28.4116V28.4282C9.60275 28.4282 11.4411 28.4282 13.274 28.4282C13.4825 28.4282 13.6197 28.3395 13.702 28.1623C13.8063 27.9352 13.7789 27.7137 13.6636 27.4921C11.7869 23.9308 9.91556 20.3639 8.03878 16.8026C7.95097 16.6364 7.85768 16.4758 7.64366 16.4758C7.42416 16.4758 7.33086 16.642 7.24306 16.8137C5.45957 20.3528 3.67608 23.8976 1.89259 27.4367C1.85966 27.5032 1.82674 27.5697 1.79931 27.6417C1.65663 28.0571 1.90357 28.406 2.33161 28.406C4.14254 28.406 5.95346 28.406 7.76439 28.406L7.76987 28.4116Z" fill="#373CB4"/>
<path d="M8.4942 21.9313C8.4942 22.6347 8.4942 23.3381 8.4942 24.0416C8.4942 24.3573 8.21432 24.612 7.85762 24.6453C7.50093 24.673 7.17168 24.468 7.09485 24.1579C7.08387 24.1136 7.08386 24.0692 7.08386 24.0249C7.08386 22.6292 7.08386 21.2279 7.08386 19.8322C7.08386 19.5054 7.35825 19.2451 7.72043 19.2174C8.07713 19.1897 8.40639 19.3946 8.47773 19.7048C8.4942 19.7657 8.4942 19.8322 8.4942 19.8987C8.4942 20.5744 8.4942 21.2556 8.4942 21.9313Z" fill="#373CB4"/>
<path d="M7.72595 27.3371C7.22108 27.3371 6.80951 26.9217 6.815 26.4176C6.815 25.9081 7.22658 25.4982 7.73144 25.4982C8.23631 25.4982 8.64788 25.9136 8.6424 26.4232C8.6424 26.9327 8.23081 27.3426 7.72595 27.3426V27.3371Z" fill="#373CB4"/>
</svg>
