<svg width="40" height="28" viewBox="0 0 40 28" fill="none" xmlns="http://www.w3.org/2000/svg">
<g clip-path="url(#clip0_320_2539)">
<path d="M0 8.80851C0.226025 8.3823 0.581208 8.24668 1.05909 8.25314C3.04811 8.27251 5.04359 8.25314 7.03261 8.26605C7.29093 8.26605 7.41363 8.18856 7.52341 7.94962C9.86761 2.94478 15.092 -0.309987 20.62 0.0258218C26.0187 0.355173 29.9774 3.02873 32.4249 7.86567C32.5735 8.16273 32.722 8.27251 33.0578 8.26605C35.0339 8.24668 37.0165 8.25314 38.9926 8.2596C39.7352 8.2596 39.9935 8.52437 39.9935 9.27348C39.9935 12.2376 39.9935 15.2018 39.9935 18.166C39.9935 18.9151 39.7352 19.1798 38.9861 19.1798C36.9842 19.1798 34.9758 19.1863 32.9739 19.1734C32.6962 19.1734 32.5735 19.2638 32.4572 19.5092C30.6813 23.1773 27.8528 25.6377 23.9587 26.8647C23.7585 26.9293 23.5195 26.968 23.3193 26.9293C22.9642 26.8647 22.7704 26.5999 22.7381 26.2383C22.7058 25.8831 23.1062 25.9671 23.4808 25.8314C24.0168 25.6377 24.5722 25.4763 25.0888 25.2438C30.0226 23.0675 33.4065 17.3781 32.6832 12.1085C31.9406 6.6645 27.362 2.02776 21.9567 1.20115C15.2212 0.187268 8.31127 5.16628 7.41363 11.9406C6.63868 17.7914 10.1711 24.0749 16.4353 25.7733C16.558 25.8121 16.6871 25.8444 16.8034 25.896C17.2296 26.0639 17.4362 26.0445 17.3135 26.4449C17.1908 26.8453 16.7775 27.0972 16.3513 26.9616C15.6216 26.7226 14.8854 26.4901 14.1944 26.1672C11.185 24.753 8.96351 22.5315 7.54278 19.5286C7.42008 19.2638 7.28447 19.1734 6.99387 19.1798C5.01776 19.1928 3.0352 19.1798 1.05909 19.1928C0.581208 19.1928 0.226025 19.0636 0 18.6374V8.80206L0 8.80851ZM6.95512 18.1918C6.21246 15.5893 6.32871 11.8631 7.0649 9.27348H4.70132V18.1918H6.94866H6.95512ZM35.2922 9.37681H32.9739C33.7165 11.9793 33.5938 15.5764 32.8641 18.1595H35.2922V9.37681ZM1.11721 9.35743V11.8373H3.5712V9.35743H1.11721ZM38.857 11.8243V9.38326H36.4417V11.8243H38.857ZM1.13013 12.4895V14.9499H3.55828V12.4895H1.13013ZM38.8182 12.567H36.4998V14.8854H38.8182V12.567ZM3.54537 18.0562V15.6409H1.13013V18.0562H3.54537ZM38.8053 15.6926H36.4998V17.9851H38.8053V15.6926Z" fill="#373CB4"/>
<path d="M19.845 27.4588C19.5673 27.3103 19.3155 27.1359 19.2832 26.7807C19.2444 26.3868 19.4446 26.0639 19.8127 25.9412C20.155 25.8314 20.5296 25.9735 20.7104 26.2899C20.8977 26.6128 20.8266 27.0197 20.5425 27.2715C20.465 27.3361 20.3875 27.4007 20.31 27.4588H19.8386H19.845Z" fill="#373CB4"/>
<path d="M9.37683 13.7359C9.37683 7.88503 14.1427 3.11267 20 3.11267C25.8573 3.11267 30.6297 7.87857 30.6232 13.7359C30.6232 19.5738 25.8638 24.3267 20.0194 24.3397C14.1621 24.3526 9.38329 19.5867 9.37683 13.7359ZM29.577 13.7036C29.5706 8.42749 25.2567 4.13947 19.9742 4.15239C14.711 4.1653 10.4295 8.45978 10.423 13.7165C10.423 18.9926 14.7304 23.287 20.0065 23.287C25.289 23.287 29.5835 18.9796 29.577 13.7036Z" fill="#373CB4"/>
<path d="M25.8572 17.701C25.8572 19.0119 25.0306 19.9677 23.8747 20.1743C22.7833 20.3681 21.6725 19.69 21.298 18.6115C20.9299 17.5331 21.3755 16.3513 22.3958 15.8217C22.68 15.6732 22.7574 15.5118 22.7316 15.2276C22.7122 15.0339 22.7187 14.8402 22.7316 14.6464C22.7639 14.2008 23.0997 13.8844 23.5195 13.8908C23.9263 13.8908 24.3202 14.2073 24.275 14.6206C24.1976 15.3245 24.43 15.7572 25.05 16.1382C25.6377 16.4998 25.8443 17.1714 25.8572 17.7074V17.701ZM23.513 18.6374C23.9457 18.6374 24.3009 18.2693 24.2944 17.8431C24.2815 17.4298 23.9328 17.0875 23.5195 17.081C23.1062 17.081 22.751 17.4233 22.7381 17.8366C22.7252 18.2693 23.0868 18.6374 23.513 18.6374Z" fill="#373CB4"/>
<path d="M20 7.63318C21.3755 7.63318 22.7575 7.63318 24.133 7.63318C24.6109 7.63318 24.9338 7.91087 24.9855 8.31771C25.0436 8.78914 24.682 9.18307 24.1589 9.18952C23.3387 9.20244 22.5186 9.18952 21.7049 9.18952C19.7675 9.18952 17.8302 9.18952 15.8928 9.18952C15.3826 9.18952 15.0533 8.92475 15.0016 8.50499C14.9435 8.02065 15.3116 7.63318 15.867 7.63318C17.2425 7.63318 18.6245 7.63318 20 7.63318Z" fill="#373CB4"/>
<path d="M16.5709 17.0035C17.2748 17.0035 17.9723 17.0035 18.6762 17.0035C19.2445 17.0035 19.5997 17.3006 19.6061 17.772C19.6061 18.2434 19.2574 18.5599 18.6956 18.5599C17.2684 18.5599 15.8412 18.5599 14.4075 18.5599C13.8715 18.5599 13.5228 18.2499 13.5164 17.7914C13.5164 17.32 13.8651 17.0035 14.4269 17.0035C15.1437 17.0035 15.8541 17.0035 16.5709 17.0035Z" fill="#373CB4"/>
<path d="M12.5799 14.6723C12.5735 14.2396 12.9351 13.878 13.3678 13.8844C13.7811 13.8844 14.1298 14.2331 14.1363 14.6529C14.1427 15.0856 13.7811 15.4472 13.3484 15.4408C12.9351 15.4408 12.5864 15.092 12.5799 14.6723Z" fill="#373CB4"/>
<path d="M16.8744 15.4343C16.4417 15.4343 16.0865 15.0662 16.0995 14.6335C16.1124 14.2202 16.4611 13.8779 16.8809 13.8779C17.3135 13.8779 17.6687 14.246 17.6558 14.6787C17.6429 15.092 17.2942 15.4343 16.8744 15.4343Z" fill="#373CB4"/>
<path d="M20.3681 13.8844C20.7814 13.8715 21.1431 14.2073 21.1624 14.6206C21.1818 15.0468 20.8331 15.4278 20.4004 15.4343C19.9677 15.4472 19.6061 15.0856 19.6061 14.6529C19.6061 14.2396 19.9483 13.8844 20.3681 13.8779V13.8844Z" fill="#373CB4"/>
<path d="M15.4988 11.5338C15.4988 11.96 15.1695 12.3087 14.7433 12.3152C14.3041 12.3216 13.949 11.9664 13.9554 11.5208C13.9619 11.0946 14.3106 10.7524 14.7304 10.7588C15.1566 10.7588 15.4924 11.1011 15.4988 11.5338Z" fill="#373CB4"/>
<path d="M19.0119 11.5402C19.0119 11.9664 18.6697 12.3086 18.2499 12.3151C17.8108 12.3151 17.462 11.9599 17.475 11.5143C17.4879 11.0881 17.8366 10.7523 18.2564 10.7588C18.6826 10.7652 19.0184 11.1139 19.0119 11.5402Z" fill="#373CB4"/>
<path d="M22.525 11.5273C22.525 11.9535 22.2021 12.3022 21.7759 12.3151C21.3367 12.328 20.9816 11.9729 20.9816 11.5273C20.9816 11.1011 21.3303 10.7588 21.7501 10.7588C22.1763 10.7588 22.5185 11.1011 22.525 11.5273Z" fill="#373CB4"/>
<path d="M25.2631 12.3151C24.8369 12.3151 24.5011 11.9664 24.5011 11.5402C24.5011 11.0946 24.8627 10.7459 25.3019 10.7652C25.7281 10.7846 26.051 11.1333 26.0445 11.5596C26.0316 11.9858 25.6893 12.3216 25.2631 12.3216V12.3151Z" fill="#373CB4"/>
</g>
<defs>
<clipPath id="clip0_320_2539">
<rect width="40" height="27.4588" fill="white"/>
</clipPath>
</defs>
</svg>
