<svg width="29" height="30" viewBox="0 0 29 30" fill="none" xmlns="http://www.w3.org/2000/svg">
<g clip-path="url(#clip0_320_2542)">
<path d="M14.07 3.60513C13.6944 3.60513 13.3406 3.60513 12.9923 3.60513C11.588 3.59398 10.7498 2.10067 11.4682 0.869242C11.7676 0.345468 12.2357 0.0557207 12.8344 0.00557206C12.927 0 13.0195 0 13.112 0C15.0334 0 16.9656 0 18.8924 0C19.8994 0 20.6233 0.668648 20.7212 1.69391C20.8083 2.59658 20.0463 3.53269 19.1591 3.59398C18.7999 3.61627 18.4407 3.60513 18.0814 3.6107C18.0161 3.6107 17.9453 3.6107 17.8691 3.6107C17.8691 3.68871 17.8583 3.74443 17.8583 3.80015C17.8583 4.65825 17.8583 5.51634 17.8583 6.37444C17.8583 6.49146 17.8855 6.55832 18.0052 6.61961C18.985 7.10996 19.747 7.84547 20.2749 8.82058C20.3294 8.92088 20.3892 8.94316 20.4926 8.94316C21.3744 8.94316 22.2562 8.94316 23.1325 8.94316C24.613 8.93759 25.8376 9.50037 26.7684 10.6761C27.3834 11.4506 27.7154 12.3421 27.7263 13.3395C27.7426 14.8551 27.7263 16.3763 27.7263 17.8919C27.7263 18.0423 27.7318 18.1984 27.7263 18.3488C27.7263 18.6218 27.5521 18.8057 27.2854 18.8057C26.1315 18.8057 24.9776 18.8057 23.8237 18.8057C23.5244 18.8057 23.3665 18.6274 23.3665 18.3042C23.3665 17.084 23.3665 15.8637 23.3665 14.6434C23.3665 13.9023 22.9039 13.4231 22.1854 13.4231C21.701 13.4231 21.2166 13.4287 20.7321 13.4231C20.5797 13.4231 20.5035 13.4733 20.4437 13.6126C19.8395 14.9331 18.8706 15.8692 17.5371 16.3763C16.2417 16.8666 14.9408 16.8332 13.6672 16.2649C12.5078 15.7467 11.637 14.9053 11.0981 13.7407C10.9675 13.4621 10.8205 13.4064 10.5593 13.4175C10.1347 13.4342 9.70473 13.4175 9.27474 13.4175C8.58893 13.4175 8.10451 13.9134 8.10451 14.6155C8.10451 17.2567 8.10451 19.8978 8.10451 22.5446C8.10451 23.0962 8.12628 23.6478 7.99565 24.1939C7.58198 25.8822 6.5696 27.0078 4.95304 27.565C4.49583 27.721 4.02774 27.7712 3.54332 27.7656C2.5146 27.76 1.48589 27.7656 0.451727 27.7656C0.097936 27.7656 -0.108896 27.4368 0.0380636 27.1248C0.130594 26.9242 0.304768 26.8741 0.500714 26.8741C1.07767 26.8741 1.65462 26.8741 2.23157 26.8741C2.80852 26.8741 3.38547 26.8908 3.96243 26.8518C4.9095 26.7849 5.69872 26.3559 6.32466 25.6315C6.9506 24.9127 7.24996 24.0713 7.22819 23.1074C7.22275 22.812 7.22819 22.5111 7.22819 22.2158C7.22819 19.6917 7.22819 17.1731 7.23908 14.649C7.23908 13.3897 8.09362 12.526 9.32372 12.526C9.7646 12.526 10.2055 12.526 10.6681 12.526C10.4776 11.6233 10.5266 10.7429 10.777 9.84584C10.2273 9.84584 9.69929 9.84584 9.17132 9.84584C8.6869 9.84584 8.20248 9.83469 7.7235 9.88484C6.82541 9.97957 6.09062 10.4198 5.50278 11.1051C4.83874 11.8796 4.59925 12.799 4.60469 13.8132C4.61558 16.2649 4.60469 18.7166 4.60469 21.1683C4.60469 21.4915 4.60469 21.8146 4.60469 22.1378C4.59925 23.2912 3.72838 24.1883 2.59625 24.1883C1.92676 24.1883 1.25728 24.1883 0.587801 24.1883C0.375526 24.1883 0.206795 24.0323 0.168694 23.8261C0.130594 23.6144 0.23401 23.4082 0.429956 23.3302C0.506157 23.3024 0.598687 23.2968 0.685774 23.2968C1.30627 23.2968 1.92676 23.2968 2.54726 23.2968C3.24396 23.2968 3.73382 22.812 3.73382 22.0932C3.73382 19.7307 3.73382 17.3681 3.73382 15.0056C3.73382 14.5041 3.73382 14.0026 3.73382 13.5011C3.74471 11.5342 4.96937 9.79012 6.79276 9.17162C7.29351 8.99888 7.81603 8.93759 8.34944 8.94316C9.24208 8.94874 10.1347 8.94316 11.0274 8.93759C11.0818 8.93759 11.1634 8.88187 11.1907 8.82615C11.822 7.70059 12.7201 6.89264 13.9067 6.42459C13.9666 6.4023 14.0428 6.32429 14.0482 6.26857C14.0591 5.39376 14.0536 4.51894 14.0536 3.61627L14.07 3.60513ZM15.7573 6.9818C13.395 6.97065 11.4519 8.93759 11.4356 11.3559C11.4193 13.8299 13.3678 15.8302 15.8172 15.8024C18.0705 15.7745 20.0463 13.9525 20.0572 11.3893C20.0735 8.93202 18.1032 6.97065 15.7573 6.9818ZM20.8138 12.5149C21.3036 12.5149 21.7663 12.5149 22.2235 12.5149C23.372 12.5149 24.2483 13.412 24.2483 14.5877C24.2483 15.6074 24.2483 16.6326 24.2483 17.6523C24.2483 17.7247 24.2483 17.8027 24.2483 17.8808H26.8718C26.8718 17.8083 26.8718 17.7415 26.8718 17.6802C26.8718 16.3206 26.8718 14.9666 26.8718 13.607C26.8718 12.721 26.6323 11.9186 26.088 11.2221C25.3913 10.3362 24.4823 9.86813 23.372 9.82912C22.8712 9.81241 22.365 9.82912 21.8643 9.82355C21.4887 9.82355 21.1077 9.82355 20.7049 9.82355C20.9444 10.7207 20.9988 11.5955 20.8138 12.5093V12.5149ZM15.9696 2.7136C16.9547 2.7136 17.9399 2.7136 18.9251 2.7136C19.453 2.7136 19.8449 2.31798 19.8449 1.79978C19.8449 1.28157 19.4476 0.897102 18.9142 0.897102C17.5589 0.897102 16.1982 0.897102 14.8429 0.897102C14.2224 0.897102 13.6019 0.897102 12.9814 0.897102C12.5187 0.897102 12.1432 1.23143 12.0887 1.67162C12.0125 2.24554 12.4153 2.70802 13.0032 2.7136C13.9938 2.7136 14.9789 2.7136 15.9696 2.7136ZM16.9711 6.22957V3.63299H14.9517V6.14599C15.6375 6.04012 16.3016 6.07355 16.9711 6.22957Z" fill="#373CB4"/>
<path d="M25.5872 30C23.7311 30 22.2126 28.4565 22.1908 26.562C22.1854 26.016 22.3595 25.5033 22.55 25.0019C23.029 23.7537 23.6713 22.5892 24.3408 21.4413C24.6184 20.9677 24.9068 20.5052 25.1953 20.0427C25.4076 19.7084 25.7723 19.714 25.9791 20.0427C26.8445 21.419 27.6773 22.8176 28.3304 24.3109C28.5645 24.8403 28.7659 25.3919 28.9074 25.9547C29.1251 26.8184 28.9074 27.6263 28.4611 28.373C27.8569 29.3815 26.7411 30.0056 25.5818 30.0056L25.5872 30ZM25.609 21.0401C25.4239 21.3522 25.2715 21.5973 25.13 21.8481C24.4442 23.0294 23.7747 24.2218 23.2957 25.5145C23.1324 25.9491 23.029 26.3949 23.0889 26.8685C23.2848 28.3228 24.6238 29.2979 26.0335 29.0583C27.4541 28.8187 28.4447 27.2585 27.9821 25.8711C27.7535 25.1802 27.4596 24.5004 27.133 23.854C26.6595 22.9123 26.1315 22.0041 25.6035 21.0401H25.609Z" fill="#373CB4"/>
<path d="M15.0933 11.1832C15.262 10.9491 15.4961 10.8377 15.6158 10.9324L18.1686 12.8994C18.2883 12.9941 18.3863 13.3953 18.2176 13.6237L18.2284 13.607C18.0597 13.841 17.6787 13.8243 17.559 13.7352L15.0062 11.7682C14.8865 11.6735 14.9246 11.4116 15.0933 11.1832Z" fill="#373CB4"/>
<path d="M26.7139 23.8652C26.9426 24.0379 27.0351 24.2998 26.9262 24.4447L24.6184 27.5873C24.5096 27.7378 24.0796 27.8882 23.8564 27.7155L23.8727 27.7266C23.6441 27.5539 23.6986 27.1137 23.802 26.9632L26.1098 23.8206C26.2186 23.6701 26.4908 23.6924 26.7139 23.8652Z" fill="#373CB4"/>
<path d="M15.4307 8.65344C15.6974 8.65344 15.9205 8.80389 15.9205 9.07692L15.9097 11.4841C15.9097 11.5955 15.6919 11.6902 15.4198 11.6902C15.1531 11.6902 14.9299 11.6011 14.9299 11.4841L14.9408 9.07692C14.9408 8.84289 15.1585 8.65344 15.4307 8.65344Z" fill="#373CB4"/>
</g>
<defs>
<clipPath id="clip0_320_2542">
<rect width="29" height="30" fill="white"/>
</clipPath>
</defs>
</svg>
