<svg width="52" height="35" viewBox="0 0 52 35" fill="none" xmlns="http://www.w3.org/2000/svg">
<g clip-path="url(#clip0_320_2536)">
<path d="M26.4565 23.0843C25.7831 22.8739 25.0834 22.7266 24.4521 22.432C23.3631 21.9217 22.3162 21.8848 21.243 22.432C19.8226 23.158 18.3812 23.158 16.966 22.432C15.9191 21.8901 14.8775 21.8796 13.8516 22.4109C12.3891 23.1632 10.9529 23.1527 9.50095 22.4109C8.5014 21.8954 7.47555 21.8743 6.46548 22.4004C4.98194 23.1843 3.51418 23.1527 2.02012 22.4004C1.58873 22.1847 1.05213 22.1952 0.610227 22.0006C0.362971 21.8901 0.205147 21.5745 0.010498 21.3535C0.241973 21.2009 0.49449 20.9011 0.699661 20.9326C1.36252 21.0273 2.04642 21.1483 2.65141 21.4272C3.75092 21.9322 4.78729 21.9532 5.86049 21.4061C7.24934 20.7012 8.65923 20.6749 10.0481 21.4009C11.1581 21.9795 12.2418 21.948 13.3413 21.4009C14.7039 20.717 16.0769 20.6854 17.4342 21.4009C18.5705 21.9953 19.6753 21.9532 20.8116 21.3798C22.1058 20.7275 23.4526 20.6854 24.7414 21.343C25.983 21.9743 27.1404 21.948 28.3819 21.343C28.9396 21.0694 29.6235 21.0221 30.26 20.9537C30.4231 20.9326 30.7282 21.1852 30.7703 21.3535C30.8124 21.5271 30.6493 21.9059 30.502 21.948C29.1868 22.3583 27.8558 22.7161 26.4617 23.1053L26.4565 23.0843Z" fill="#373CB4"/>
<path d="M21.2115 25.7936C19.8437 26.4723 18.4654 26.5038 17.1028 25.8304C15.9612 25.2675 14.8617 25.2675 13.7149 25.8304C12.3892 26.4828 11.0213 26.5091 9.68511 25.8462C8.51195 25.2623 7.38089 25.2518 6.21825 25.862C5.15031 26.4196 4.00872 26.4196 2.86713 26.104C2.06749 25.883 1.27311 25.6358 0.499779 25.3412C0.294609 25.2623 -0.0052562 24.9098 0.0368301 24.8046C0.131524 24.5731 0.44191 24.2469 0.620777 24.268C1.3152 24.3627 2.04119 24.4784 2.66722 24.773C3.76673 25.2991 4.78732 25.2991 5.86578 24.7467C7.24937 24.0365 8.6803 24.0207 10.0639 24.7467C11.1423 25.3096 12.1735 25.3201 13.2519 24.7625C14.7039 24.0049 16.1822 24.0628 17.6236 24.7993C18.6127 25.3096 19.5806 25.3254 20.5592 24.8204C22.0743 24.0418 22.2742 25.2623 21.2115 25.7936Z" fill="#373CB4"/>
<path d="M4.27176 30.2548C3.58259 30.0654 3.01443 29.9181 2.45679 29.755C1.84127 29.5761 1.21524 29.413 0.615512 29.1763C0.373516 29.0816 0.205171 28.8133 0 28.6239C0.231475 28.4293 0.489253 28.0558 0.694424 28.0821C1.35728 28.161 2.04645 28.2978 2.64618 28.5766C3.74042 29.0869 4.77679 29.1184 5.84473 28.5661C7.2704 27.8243 8.70134 27.8506 10.1218 28.5766C11.2002 29.129 12.2471 29.1027 13.315 28.5503C14.6723 27.8506 16.0664 27.8243 17.4185 28.5187C18.5601 29.1027 19.6385 29.1132 20.7801 28.5292C22.1374 27.8295 22.2584 29.0553 21.0905 29.655C19.7595 30.3337 18.4022 30.3179 17.0712 29.634C15.9717 29.0658 14.888 29.0395 13.7833 29.6024C12.3944 30.3126 11.0003 30.3284 9.59567 29.6024C8.53825 29.0553 7.48084 29.0658 6.38133 29.5709C5.69217 29.8865 4.92936 30.0443 4.26124 30.2495L4.27176 30.2548Z" fill="#373CB4"/>
<path d="M33.448 12.9363C31.6541 13.4466 30.5809 14.4619 30.1127 16.1454C29.8707 17.0081 29.4972 17.8341 29.1394 18.6548C28.7764 19.4807 28.0504 19.8227 27.2508 19.6122C26.4722 19.4071 25.9251 18.6916 26.1723 17.8183C26.7616 15.7403 27.3928 13.6623 28.203 11.6632C28.4871 10.9635 29.2657 10.3743 29.9496 9.95343C32.2065 8.5751 34.6948 7.91224 37.3252 7.61764C38.7614 7.45455 40.1818 7.04947 41.5759 6.62861C41.9705 6.50761 42.3493 6.0131 42.5386 5.5975C43.1647 4.25074 43.6908 2.85663 44.2694 1.48356C44.7008 0.462971 45.4321 0.0631518 46.2948 0.352495C47.1524 0.641838 47.4838 1.38361 47.1734 2.49363C46.7368 4.04557 46.2791 5.59224 45.7793 7.12312C45.2532 8.73819 44.1853 9.99551 42.6859 10.6794C40.6921 11.5895 40.3133 12.8416 40.7079 14.9564C41.0446 16.7609 41.6917 17.9288 43.3225 18.6916C45.127 19.5386 46.4211 20.9011 47.1418 22.8055C47.5259 23.8156 48.0835 24.7573 48.5359 25.7463C48.9358 26.6196 48.7043 27.4561 47.9941 27.8559C47.2523 28.2715 46.358 28.0032 45.8424 27.1878C45.1638 26.1146 44.4799 25.0414 43.8433 23.9419C43.3646 23.1212 42.7017 22.5951 41.7969 22.3057C41.0604 22.069 40.3396 21.7797 39.64 21.4482C39.0771 21.1852 38.8193 21.3167 38.6036 21.8954C37.6461 24.4153 36.6624 26.9247 35.6628 29.4289C35.505 29.8234 35.2893 30.2285 34.9947 30.5178C34.4423 31.0492 33.7531 31.0913 33.1061 30.6967C32.3432 30.2338 32.1802 29.4972 32.3906 28.666C32.7957 27.1088 33.085 25.499 33.6584 24.005C34.7948 21.0432 34.7843 18.1024 33.9162 15.1037C33.7111 14.3988 33.6058 13.6675 33.448 12.931V12.9363ZM33.448 29.2132C33.5374 29.3289 33.6847 29.5235 33.8373 29.7129C34.0688 29.5183 34.4213 29.371 34.5212 29.1237C35.5944 26.4828 36.6203 23.8261 37.6829 21.1799C38.0617 20.233 38.6983 19.9068 39.5873 20.2225C40.7552 20.6328 41.9389 21.0379 43.0332 21.6008C43.6592 21.927 44.2116 22.5004 44.6324 23.0843C45.4058 24.1628 46.0476 25.3412 46.7788 26.4565C46.8998 26.6406 47.1944 26.7038 47.4101 26.8248C47.4154 26.5828 47.5048 26.3039 47.4154 26.0988C46.0476 22.8967 43.8784 20.3785 40.9078 18.5443C40.8552 18.5127 40.7815 18.4969 40.75 18.4496C40.4922 18.0919 40.0976 17.7552 40.024 17.3606C39.7031 15.7192 39.5032 14.0568 39.2138 12.4102C39.1086 11.821 39.3296 11.4896 39.8083 11.2002C40.7342 10.6373 41.6391 10.0376 42.5492 9.44839C43.6276 8.74345 44.3852 7.78598 44.7692 6.55496C45.2059 5.16611 45.6267 3.77201 46.0055 2.36738C46.0792 2.09381 45.9371 1.76765 45.895 1.46252C45.6793 1.68347 45.3795 1.87286 45.2637 2.1359C44.6535 3.52475 44.1695 4.97673 43.4803 6.32349C43.1857 6.89691 42.5807 7.5019 41.9915 7.69655C40.529 8.18054 39.0034 8.56458 37.4778 8.75923C35.1104 9.06435 32.8798 9.66408 30.7808 10.8215C29.797 11.3633 29.0763 12.0683 28.7343 13.1099C28.2398 14.6092 27.8032 16.1296 27.3823 17.65C27.3139 17.8867 27.4718 18.1866 27.5244 18.4601C27.7558 18.2707 28.0873 18.1234 28.1977 17.8814C28.666 16.8345 29.0868 15.7666 29.4814 14.6934C29.8549 13.6728 30.5493 12.9731 31.512 12.5102C32.0434 12.2524 32.5695 11.9946 33.0955 11.7263C34.153 11.1897 34.3634 11.2897 34.5738 12.426C34.7843 13.5834 34.9158 14.767 35.2419 15.8929C35.9784 18.4391 35.9574 20.9064 35.0368 23.4263C34.3739 25.2518 34.0057 27.1878 33.4638 29.2289L33.448 29.2132Z" fill="#373CB4"/>
<path d="M34.9526 35C32.2275 34.8895 29.5498 34.5949 27.0404 33.4902C26.2881 33.1587 25.5463 32.701 24.9361 32.1539C23.5683 30.9282 23.5578 29.2289 24.8993 28.0032C26.6458 26.4039 28.8712 25.9199 31.1228 25.5569C31.3069 25.5253 31.5542 25.8831 31.7698 26.0567C31.5489 26.2671 31.3648 26.5933 31.107 26.6774C29.9023 27.0667 28.6555 27.3298 27.4665 27.7612C26.8458 27.9874 26.2565 28.3977 25.7515 28.8396C24.8361 29.634 24.794 30.5652 25.7515 31.2806C26.6301 31.933 27.6296 32.5327 28.6712 32.8378C33.1903 34.1635 37.7198 34.1583 42.1862 32.5327C42.8175 32.3012 43.4277 31.9487 43.9643 31.5437C45.2112 30.6178 45.248 29.4499 43.9328 28.6081C42.9069 27.9505 41.7075 27.5612 40.5711 27.0825C40.2608 26.951 39.882 26.972 39.5926 26.8142C39.398 26.709 39.1823 26.3934 39.2086 26.204C39.2349 26.0198 39.5874 25.7147 39.7452 25.7463C41.9284 26.1619 44.0801 26.7143 45.5321 28.5766C46.4895 29.8023 46.116 31.3806 44.7009 32.4801C43.2173 33.6375 41.4602 34.1741 39.6558 34.4844C38.1038 34.7527 36.5203 34.8422 34.9526 35.0105V35Z" fill="#373CB4"/>
<path d="M34.4055 31.712C35.9521 31.4069 37.3936 31.1964 38.7824 30.8072C39.298 30.6598 39.6926 30.0917 40.145 29.7129C39.6926 29.371 39.2559 29.0027 38.7877 28.6871C38.5615 28.5398 38.2195 28.545 38.0249 28.3767C37.8513 28.2294 37.6777 27.8927 37.7355 27.7138C37.7934 27.5349 38.2195 27.2824 38.3458 27.3403C39.2507 27.7769 40.2134 28.1715 40.9709 28.8081C41.6496 29.3815 41.4707 30.5125 40.6553 31.0807C39.9609 31.57 39.156 31.9856 38.3353 32.196C35.6418 32.8904 32.9219 32.8799 30.2494 32.096C29.5235 31.8856 28.8133 31.5016 28.2135 31.0386C27.3613 30.3863 27.2824 29.1395 28.1557 28.5503C29.0763 27.9295 30.1968 27.5928 31.2543 27.1983C31.4016 27.1404 31.7856 27.4402 31.8908 27.6559C31.9487 27.7664 31.6804 28.1662 31.4805 28.2504C30.9754 28.4714 30.3862 28.524 29.9022 28.7765C29.4603 29.008 29.1026 29.4078 28.708 29.734C29.0921 30.0654 29.4235 30.5757 29.8654 30.6967C31.3753 31.1123 32.9219 31.3858 34.4107 31.7067L34.4055 31.712Z" fill="#373CB4"/>
<path d="M35.5734 0C37.6409 0 39.2507 1.5835 39.2507 3.60364C39.2507 5.72373 37.683 7.32301 35.5892 7.34406C33.5638 7.35984 31.9066 5.72899 31.9066 3.71411C31.9119 1.57824 33.4691 0 35.5734 0ZM35.6102 6.17616C37.0201 6.15512 38.1301 5.00827 38.1091 3.59838C38.088 2.22531 36.8833 1.06794 35.5103 1.10476C34.174 1.14685 33.0482 2.30948 33.0535 3.64572C33.0535 5.04509 34.2108 6.19194 35.6049 6.1709L35.6102 6.17616Z" fill="#373CB4"/>
<path d="M24.4626 23.3842C25.7305 23.4684 26.509 23.9208 26.8983 24.8625C27.0088 25.1308 26.8247 25.5254 26.7773 25.8568C26.488 25.72 26.1829 25.599 25.9093 25.4359C25.4622 25.1624 25.0308 24.8572 24.5994 24.5521C24.3153 24.3522 24.047 24.1312 23.7734 23.9261C24.0523 23.7051 24.3258 23.4894 24.4573 23.3842H24.4626Z" fill="#373CB4"/>
<path d="M47.952 28.8133C49.2041 28.8554 50.3877 30.0812 50.3141 31.107C50.2983 31.3227 50.0353 31.691 49.8932 31.6857C49.6618 31.6804 49.2935 31.4595 49.2462 31.2648C49.062 30.5231 48.6464 30.1022 47.9099 29.8918C47.7047 29.8339 47.4417 29.4393 47.468 29.2342C47.4943 29.0395 47.8573 28.8817 47.952 28.808V28.8133Z" fill="#373CB4"/>
<path d="M32.822 24.6836C32.7378 24.7835 32.5694 25.136 32.3695 25.1623C32.1749 25.1834 31.9118 24.894 31.7225 24.6994C31.4699 24.4311 31.2385 24.1259 31.0438 23.8156C30.9018 23.5841 30.8229 23.3158 30.7177 23.0633C30.9807 22.9686 31.2648 22.7687 31.512 22.8002C32.1907 22.8949 32.8272 23.7735 32.822 24.6888V24.6836Z" fill="#373CB4"/>
<path d="M50.0827 28.3135C49.8144 28.1084 49.5355 27.8927 49.2567 27.677C49.5408 27.4718 49.7986 27.2193 50.109 27.0667C50.3773 26.9299 50.6982 26.8405 50.998 26.8405C51.2295 26.8405 51.5978 26.9668 51.6556 27.1246C51.724 27.3087 51.5872 27.7085 51.4189 27.8138C51.0664 28.0295 50.635 28.1189 50.0827 28.3083V28.3135Z" fill="#373CB4"/>
<path d="M31.6173 21.6271C31.5594 21.5745 31.2806 21.4324 31.2227 21.2273C31.1754 21.0589 31.3384 20.6749 31.4857 20.6328C31.996 20.4802 32.5326 20.3908 33.064 20.3698C33.1955 20.3698 33.4428 20.7064 33.448 20.8906C33.448 21.0694 33.2481 21.3693 33.0745 21.4219C32.6747 21.5429 32.238 21.5482 31.6173 21.6271Z" fill="#373CB4"/>
</g>
<defs>
<clipPath id="clip0_320_2536">
<rect width="51.6714" height="35" fill="white"/>
</clipPath>
</defs>
</svg>
