<svg width="34" height="32" viewBox="0 0 34 32" fill="none" xmlns="http://www.w3.org/2000/svg">
<g clip-path="url(#clip0_320_2537)">
<path d="M25.4987 7.22683C29.0656 11.1166 31.1804 14.1986 33.2686 19.2149C35.4999 24.1833 32.3411 30.1136 27.5604 31.5908C22.4935 33.1584 17.0716 30.0179 15.9532 24.8422C15.8631 24.4331 15.7783 24.0239 15.6882 23.6147C15.6882 23.1684 15.6882 22.722 15.6882 22.281C16.0857 17.828 20.135 13.0561 23.156 8.89538C23.2726 8.73597 23.6118 8.48621 23.8504 8.66157C24.0571 8.89007 24.126 9.22484 24.0041 9.40551C22.4617 11.7117 20.8399 13.9648 19.3506 16.3029C18.6139 17.456 17.9991 18.4816 17.4214 19.725C15.561 23.7423 17.9408 27.9508 20.9194 29.8266C24.0836 31.3145 26.4368 31.2879 29.2352 29.4547C31.4507 27.9508 32.7492 25.7828 32.7916 22.366C32.6962 21.2713 32.3093 19.7888 31.8429 18.7738C30.1362 15.0541 28.1752 12.1953 25.4033 8.96977C25.1277 8.65094 24.8945 8.29492 24.6136 7.9814C24.3221 7.65194 24.3645 7.21089 24.7249 6.92394C24.8044 6.85486 25.3079 6.88675 25.4934 7.22152L25.4987 7.22683Z" fill="#373CB4"/>
<path d="M23.5642 20.2511C23.3734 20.4317 23.2038 20.5965 22.9917 20.7984C23.1932 21.011 23.4105 21.181 23.5271 21.4042C23.6119 21.5636 23.6808 21.7974 23.5642 21.994C23.3151 22.2066 23.1667 22.1056 22.9758 21.9834C22.9175 21.9462 22.8539 21.8505 22.7797 21.808C22.5677 21.6911 22.3504 21.5849 22.1384 21.4733C22.0695 21.7018 21.9635 21.9303 21.937 22.1641C21.8999 22.4829 21.9211 22.8708 21.4865 22.7964C21.3275 22.7698 21.2109 22.3979 21.1102 22.1641C21.0095 21.9409 20.9565 21.7018 20.8823 21.4733C20.6703 21.5795 20.4318 21.6592 20.2463 21.8027C20.0025 21.9887 19.7534 22.3235 19.4884 21.9621C19.3877 21.824 19.5785 21.452 19.6686 21.1969C19.7481 20.9738 19.87 20.7665 19.9707 20.554C19.7587 20.4849 19.5467 20.4158 19.3347 20.3414C19.0909 20.2564 18.6987 20.2564 18.6563 19.9429C18.5874 19.4646 19.0167 19.4699 19.34 19.4274C19.552 19.4009 19.8382 19.3477 20.0449 19.2733C19.9601 19.0927 19.8435 18.9014 19.7269 18.7419C19.5255 18.4709 19.0962 18.2318 19.4937 17.8652C19.8488 17.5304 20.0767 17.9342 20.3152 18.1415C20.4159 18.2265 20.5113 18.3168 20.6703 18.4603C20.8452 18.2637 20.9989 18.0883 21.1897 17.8758C20.9989 17.6685 20.7816 17.4985 20.665 17.2806C20.5855 17.1212 20.5113 16.9724 20.6438 16.6961C20.8611 16.5101 21.0466 16.6217 21.2321 16.7121C21.248 16.7174 21.2639 16.7439 21.2798 16.7546C21.5448 16.9087 21.8098 17.0628 22.0748 17.2116C22.1437 16.9299 22.1755 16.6323 22.2868 16.3667C22.3663 16.1754 22.414 15.8831 22.6843 15.8512C22.9281 15.814 23.0925 16.1382 23.1031 16.3454C23.1084 16.4836 23.0978 16.6536 23.1243 16.8024C23.1508 16.9405 23.2038 17.1531 23.2939 17.1797C23.4317 17.2169 23.6172 17.1584 23.755 17.0787C24.0783 16.9033 24.2956 16.2179 24.7514 16.7492C25.1383 17.2009 24.5235 17.4082 24.3168 17.7004C23.9564 18.2052 23.5324 18.4816 22.9599 17.9714C22.9175 17.9289 22.838 17.9236 22.7744 17.913C22.1702 17.8439 20.612 19.4806 20.7127 20.0757C20.824 20.7293 21.566 20.9738 22.096 20.5115C22.4776 20.1767 22.8274 19.7994 23.1826 19.4327C23.4529 19.1564 23.7073 19.1458 23.9723 19.4381C24.2108 19.6984 24.5023 19.9216 24.7037 20.2086C24.7991 20.3467 24.8998 20.5858 24.762 20.7878C24.5076 20.9578 24.3062 20.8409 24.1313 20.7559C23.9246 20.6602 23.7762 20.4424 23.5695 20.2458L23.5642 20.2511Z" fill="#373CB4"/>
<path d="M29.442 24.922C29.707 24.922 29.9826 24.8741 30.2264 24.9379C30.396 24.9857 30.6133 25.0601 30.6663 25.3258C30.5868 25.6978 30.396 25.6765 30.2211 25.7244C29.9773 25.7934 29.6964 25.7403 29.4632 25.7403C29.1346 26.2079 29.0498 26.5799 29.5427 26.9678C29.6858 27.0794 29.8978 27.361 29.6752 27.6905C29.4261 27.8712 29.1876 27.6427 28.9862 27.5364C28.8219 27.4514 28.7212 27.2441 28.5728 27.0741C28.2919 27.1857 28.0481 27.2813 27.852 27.3557C27.587 27.7808 28.1223 28.6045 27.3008 28.5885C27.1418 28.5885 26.9563 27.8712 26.8396 27.462C26.458 27.0475 26.0817 27.0634 25.6789 27.5417C25.5623 27.6799 25.2178 27.8499 25.0005 27.6852C24.7938 27.3823 25.0323 27.1644 25.1489 26.9572C25.2973 26.6915 25.6365 26.5746 25.4563 26.1176C25.2761 25.6606 24.9581 25.8094 24.6613 25.7244C24.4334 25.6606 24.1525 25.7244 24.0465 25.3046C24.1366 24.8954 24.4599 24.9645 24.6878 24.9273C25.0164 24.8741 25.4139 24.9432 25.4245 24.4809C25.4298 24.2259 25.2443 23.9708 25.1648 23.7104C25.0906 23.4713 24.9157 23.1259 25.0164 22.993C25.2867 22.6211 25.5464 22.924 25.769 23.1418C25.9863 23.3491 26.1347 23.5935 26.5481 23.4128C26.9351 23.2428 26.9404 23.0037 26.9404 22.6795C26.9404 22.3713 26.9033 21.9568 27.3538 22.0312C27.5234 22.0578 27.6665 22.4563 27.7566 22.7114C27.8202 22.8921 27.8467 23.1365 27.8732 23.3331C27.9315 23.8326 27.6294 24.0292 27.1259 24.0983C26.5322 24.1833 26.1877 24.5872 26.1188 25.1823C26.0605 25.7137 26.2566 26.2239 26.7602 26.378C27.1577 26.4949 27.7354 26.5055 28.0428 26.2876C28.3449 26.0698 28.4668 25.5224 28.5516 25.0973C28.6099 24.7997 28.1912 24.3374 28.7106 24.2152C28.9279 24.1621 29.2565 24.635 29.4844 24.9379C29.4579 24.9964 29.4685 24.8582 29.4367 24.9167L29.442 24.922Z" fill="#373CB4"/>
<path d="M28.2123 19.8898C27.5392 19.9057 26.9827 19.3849 26.9562 18.7101C26.9244 18.0033 27.465 17.4135 28.154 17.3976C28.8165 17.3816 29.3836 17.913 29.4101 18.5879C29.4419 19.2999 28.9066 19.8791 28.2123 19.8951V19.8898ZM28.7582 18.6198C28.6098 18.1946 28.313 18.1468 28.1593 18.1574C28.0321 18.1574 27.6823 18.3594 27.6823 18.6729C27.6823 18.9864 28.0162 19.1511 28.1593 19.1671C28.2971 19.183 28.6999 19.1033 28.7582 18.6251V18.6198Z" fill="#373CB4"/>
<path d="M24.8309 11.988C25.5411 11.9721 26.087 12.5141 26.087 13.2261C26.087 13.9116 25.5676 14.4483 24.8892 14.4643C24.1843 14.4802 23.6331 13.9329 23.6331 13.2208C23.6331 12.5353 24.1472 12.004 24.8309 11.988ZM24.8574 12.6363C24.4546 12.6576 24.3804 13.0774 24.3751 13.2368C24.3751 13.359 24.5129 13.7522 24.8256 13.7416C25.2549 13.731 25.3768 13.359 25.3768 13.2102C25.3768 12.8701 25.1118 12.7054 24.8521 12.6363H24.8574Z" fill="#373CB4"/>
<path d="M21.1367 24.922C21.8151 24.922 22.3451 25.4534 22.3557 26.1335C22.3663 26.8456 21.8204 27.3929 21.1102 27.3876C20.4265 27.3823 19.8964 26.8562 19.8911 26.176C19.8805 25.4693 20.4265 24.9167 21.1367 24.922ZM21.1526 26.7393C21.5448 26.6649 21.6508 26.1707 21.619 26.0326C21.5872 25.8838 21.248 25.6128 21.0784 25.6128C20.8081 25.6128 20.6226 25.9954 20.6279 26.1229C20.6385 26.2823 20.7021 26.633 21.1526 26.7393Z" fill="#373CB4"/>
<path d="M5.10546e-05 2.08833H0.63076C0.63076 2.18398 0.63076 2.269 0.63076 2.34871C0.63076 3.31052 0.63606 1.81733 0.63076 2.77913C0.63076 2.99169 0.694361 3.05014 0.895764 3.03951C1.29857 3.02357 1.69608 3.02357 2.09888 3.03951C2.31089 3.05014 2.36919 2.97574 2.35859 2.7685C2.34269 2.49218 2.35859 2.21055 2.35859 1.91297C2.46459 1.91297 2.54939 1.90235 2.62889 1.90235C3.75781 1.90235 4.89202 1.90235 6.02094 1.90235C6.22764 1.90235 6.32304 1.86515 6.30184 1.63134C6.28064 1.41879 6.28594 1.20092 6.30184 0.988365C6.31774 0.781125 6.23294 0.738614 6.04214 0.738614C4.49982 0.738614 5.18353 0.738614 3.99631 0.738614C3.91681 0.738614 3.83731 0.738614 3.76311 0.727986C3.4981 0.685475 3.3073 0.669534 3.3126 0.398528C3.3126 0.116894 3.514 0.0265582 3.79491 -0.0106388C3.84261 -0.0159526 3.89561 -0.0106388 3.94331 -0.0106388C6.89545 -0.0106388 6.72055 -0.0106388 9.67269 -0.0106388C10.0384 -0.0106388 10.2822 0.0478136 10.3034 0.356017C10.3246 0.706731 10.0967 0.7333 9.731 0.738614C8.95188 0.738614 9.7734 0.738614 8.99428 0.738614C8.54378 0.738614 8.09327 0.749242 7.64276 0.738614C7.44666 0.7333 7.39366 0.80238 7.40426 0.988365C7.42016 1.21686 7.42016 1.45067 7.40426 1.67917C7.39366 1.85984 7.45726 1.90766 7.63746 1.90766C8.77698 1.90235 9.9165 1.90766 11.056 1.90766C11.2539 1.90766 11.3528 2.0104 11.3528 2.21586C11.3528 2.40716 11.3634 2.60378 11.3528 2.79507C11.3369 2.98106 11.3952 3.04482 11.5913 3.03951C12.2803 3.02888 12.964 3.03951 13.6531 3.03951C16.5522 3.03951 19.0008 5.2979 19.2181 8.19926C19.2658 8.85818 19.2446 9.51709 19.2552 10.1813C19.2552 10.2398 19.2605 10.2929 19.2658 10.3833H20.363V14.8788H12.5241C12.5241 14.8044 12.5082 14.7353 12.5082 14.6662C12.5082 13.3165 12.5082 11.9668 12.5082 10.6171C12.5082 10.4417 12.5506 10.3726 12.7361 10.3833C13.0276 10.3992 13.3191 10.3833 13.6584 10.3833C13.6266 10.0538 13.6372 9.7509 13.5683 9.46395C13.4517 8.99634 13.0117 8.68282 12.5294 8.6775C12.2008 8.6775 11.8722 8.6775 11.5436 8.6775C11.4058 8.6775 11.3528 8.72533 11.3581 8.86349C11.3634 9.16638 11.3581 9.46395 11.3581 9.78278H2.35329C2.35329 9.48521 2.34799 9.18232 2.35329 8.88474C2.35859 8.73064 2.31089 8.66688 2.14658 8.67219C1.71198 8.68282 1.27207 8.68282 0.837463 8.67219C0.678461 8.67219 0.62546 8.72001 0.62546 8.87943C0.63076 9.51178 0.62546 8.906 0.62546 9.53835C0.62546 9.93157 0.62546 6.83891 0.62546 9.80935C0.62546 10.0963 0.62546 10.0963 0.349856 10.0963C0.0689521 10.0963 0.275655 10.091 -0.00524902 10.0857V2.08833H5.10546e-05ZM10.7274 9.07604V2.60909H10.4836C8.40068 2.60909 5.34253 2.60909 3.2596 2.60909C3.0529 2.60909 2.9946 2.66754 2.9999 2.86947C3.0105 4.58584 3.0105 7.09929 2.9999 8.81566C2.9999 9.03885 3.0688 9.08667 3.2755 9.08667C5.35313 9.08136 8.40068 9.08667 10.4783 9.08667C10.5578 9.08667 10.632 9.08667 10.7274 9.08667V9.07604ZM18.4973 10.3673C18.4973 10.277 18.4973 10.2026 18.4973 10.1229C18.4973 9.62868 18.4973 9.13449 18.4973 8.63499C18.4973 6.49883 16.9285 4.34672 14.8297 3.97475C13.8227 3.79408 12.4287 3.90567 11.4164 3.89504C11.4058 3.89504 11.3952 3.91098 11.374 3.92161V7.87511C11.7397 7.87511 11.7503 7.87511 12.1001 7.87511C13.4198 7.89105 14.3792 8.54466 14.3845 9.86781C14.3845 10.0325 14.3845 10.192 14.3845 10.362H18.5026L18.4973 10.3673ZM13.3085 11.2228C13.3085 12.0199 13.3085 13.1358 13.3085 13.9063C13.3085 14.0817 13.4251 14.0604 13.5312 14.0604C15.4604 14.0604 17.3843 14.0604 19.3135 14.0604C19.5096 14.0604 19.552 13.986 19.5467 13.8107C19.5361 13.3059 19.5467 12.445 19.5467 11.9402C19.5467 11.7064 19.5467 11.4673 19.5467 11.2175H13.3085V11.2228ZM0.646661 5.85054C0.646661 6.36067 0.646661 7.25871 0.646661 7.76884C0.646661 7.907 0.689061 7.95482 0.832163 7.95482C1.28267 7.94951 1.73318 7.94951 2.18368 7.95482C2.31619 7.95482 2.35859 7.907 2.35329 7.77946C2.35329 6.7592 2.35329 4.86216 2.35329 3.8419C2.35329 3.70374 2.31089 3.6506 2.16778 3.65592C1.72258 3.66123 1.28267 3.66654 0.837463 3.65592C0.683761 3.65592 0.641361 3.70906 0.641361 3.85784C0.646661 4.35735 0.641361 5.35104 0.641361 5.85585L0.646661 5.85054Z" fill="#373CB4"/>
</g>
<defs>
<clipPath id="clip0_320_2537">
<rect width="34" height="32" fill="white"/>
</clipPath>
</defs>
</svg>
