<svg width="45" height="42" viewBox="0 0 45 42" fill="none" xmlns="http://www.w3.org/2000/svg">
<g filter="url(#filter0_d_320_2538)">
<g clip-path="url(#clip0_320_2538)">
<path d="M11.2893 20.5075V16.0881C9.75141 16.0881 8.2478 16.0881 6.73847 16.0881C6.10958 16.0881 5.48069 16.0881 4.85752 16.0881C4.38299 16.0881 4.02853 15.8937 4.02281 15.3906C4.01138 14.8532 4.37156 15.2648 4.88039 15.2648C6.82994 15.2648 8.77378 15.2648 10.7233 15.2648C11.0149 15.2648 11.295 15.3334 11.438 14.9104C11.5009 14.7217 11.8725 14.5388 12.1126 14.5273C13.0388 14.4816 13.9764 14.4873 14.9026 14.5273C15.1256 14.5388 15.4743 14.6988 15.5372 14.8761C15.6916 15.2934 15.966 15.2763 16.2919 15.2706C17.0465 15.2591 17.7955 15.2706 18.5902 15.2706V11.0227C18.3901 11.0113 18.2014 10.9941 18.0127 10.9884C17.4639 10.9712 17.1723 10.7083 17.1723 10.1423C17.1723 9.23322 17.1723 8.32419 17.1723 7.41516C17.1723 6.83773 17.4753 6.59761 18.0242 6.60333C18.4358 6.60333 18.8417 6.60333 19.3048 6.60333V5.14545C18.3157 5.14545 17.3324 5.15688 16.349 5.14545C14.914 5.12258 13.6162 3.90482 13.5247 2.52127C13.4333 1.20632 14.3823 0.0857531 15.703 0.0342986C16.955 -0.0114387 18.2185 -0.0514589 19.4649 0.0571673C20.0366 0.108622 20.5912 0.508824 21.1229 0.800399C21.3573 0.931894 21.5288 1.18345 21.7289 1.38355C22.0833 1.73801 22.4721 1.78375 22.7866 1.37783C23.6956 0.188662 24.9305 -0.0914791 26.3541 0.0228643C27.1087 0.0857531 27.8691 0.0228643 28.6238 0.0342986C30.0988 0.0571673 31.0136 1.04052 31.0078 2.58987C31.0078 4.14494 30.0817 5.13973 28.6238 5.15688C27.5432 5.16832 26.457 5.1626 25.3764 5.16832C25.3364 5.16832 25.2907 5.19118 25.2049 5.21405V6.61476C25.6337 6.61476 26.0568 6.61476 26.4798 6.61476C27.063 6.61476 27.3546 6.88347 27.3489 7.48949C27.3374 8.28989 27.3489 9.09029 27.3489 9.8907C27.3489 10.8112 27.1831 10.977 26.2569 11.0055C26.1711 11.0055 26.0854 11.017 25.9481 11.0284V15.282C26.8229 15.282 27.7205 15.282 28.6181 15.282C28.6924 15.282 28.8125 15.2362 28.8296 15.1848C29.0583 14.3958 29.7043 14.5445 30.2703 14.5388C30.9392 14.533 32.3571 14.5045 33.026 14.5502C33.3004 14.5673 33.7235 14.6988 33.7921 14.8875C33.9636 15.3563 34.2838 15.282 34.6154 15.2877C36.4963 15.2877 37.634 15.2877 39.5207 15.2934C40.1839 15.2934 40.5612 14.939 40.5155 15.4078C40.4583 15.9852 40.0581 16.1053 39.5379 16.1053C37.4625 16.0938 36.1304 16.1053 33.9979 16.1053V20.5246C35.4672 20.5246 36.1819 20.5246 37.6512 20.5246C38.3201 20.5246 38.9947 20.5246 39.6636 20.5189C40.1382 20.5189 40.4926 20.7133 40.5041 21.2164C40.5155 21.7538 40.1553 21.3994 39.6522 21.3936C37.7255 21.3936 36.5478 21.3936 34.6211 21.3936C34.2895 21.3936 33.9579 21.3193 33.8035 21.7996C33.7464 21.9711 33.3519 22.1197 33.1003 22.1312C32.2142 22.1712 30.5791 22.1769 29.6929 22.1312C29.4356 22.114 29.1841 21.8796 28.9382 21.7424C28.7438 21.6338 28.5609 21.4108 28.3722 21.4108C24.3473 21.3936 20.3225 21.3994 16.2976 21.3994C15.9774 21.3994 15.6916 21.3479 15.5315 21.7881C15.4629 21.9768 15.0398 22.1197 14.7711 22.1312C13.9307 22.1769 13.0845 22.1769 12.2384 22.1312C11.9697 22.1197 11.5466 21.9825 11.4723 21.7938C11.3065 21.3765 11.0435 21.3936 10.7119 21.3994C8.80808 21.3994 6.90426 21.3994 5.00045 21.3994C4.33725 21.3994 3.95992 21.6966 4.01138 21.2278C4.07426 20.6504 4.47447 20.5303 4.98901 20.5361C7.06434 20.5475 9.13968 20.5361 11.295 20.5361L11.2893 20.5075ZM28.8182 16.0995C27.8119 16.0995 26.8629 16.0824 25.9138 16.111C25.6566 16.1167 25.365 16.2139 25.1535 16.3568C23.3526 17.5746 21.0943 17.5631 19.3162 16.3168C19.1962 16.231 19.059 16.111 18.9275 16.1053C17.8526 16.0881 16.7835 16.0938 15.7087 16.0938V20.4732H28.8125V16.0938L28.8182 16.0995ZM22.5464 4.18496C24.7361 4.18496 26.9258 4.18496 29.1097 4.18496C30.1503 4.18496 30.2818 3.99058 30.2818 2.50412C30.2818 2.37262 30.276 2.23541 30.2818 2.10391C30.3447 1.15486 29.5786 0.77753 28.9154 0.788965C27.7262 0.811834 26.983 0.840419 25.7938 0.77753C25.1878 0.743227 24.5246 0.548844 24.0958 1.10913C23.6613 1.68084 23.5812 1.84664 23.0267 2.08676C22.1119 2.48125 21.4659 2.48125 20.4654 1.53791C20.0423 1.13771 19.6135 0.897591 19.2019 0.857571C17.784 0.714642 16.8236 0.800399 15.4 0.811834C14.9369 0.811834 14.2565 1.18917 14.228 1.82949C14.1536 3.32167 14.6796 4.17353 15.7659 4.18496C18.0242 4.20783 20.2824 4.19068 22.5464 4.19068V4.18496ZM19.4649 11.0341C19.4649 12.3205 19.4477 13.5268 19.482 14.7389C19.482 14.9332 19.6707 15.1505 19.8022 15.3049C21.1057 16.8656 23.7127 16.6312 24.7361 15.3049C24.8447 15.1676 25.0391 15.0076 25.0448 14.8589C25.0677 13.5897 25.0563 12.3205 25.0563 11.0341H19.4649ZM18.0127 7.51236V10.0451H26.5142V7.51236H18.0127ZM12.1183 15.402V21.1821H14.914V15.402H12.1183ZM33.1175 21.205V15.4249H29.67V21.205H33.1175ZM20.1395 6.5633H24.3874V5.20262H20.1395V6.5633Z" fill="#373CB4"/>
<path d="M36.1076 26.9907C36.0618 28.0541 35.553 28.7859 34.6897 29.1004C33.8493 29.4034 32.9002 29.169 32.3285 28.5115C31.7682 27.8712 31.6139 26.6877 32.0484 25.8873C32.4372 25.167 33.0946 24.0979 33.5406 23.4118C33.8264 22.9716 33.9579 22.9716 34.2209 23.3661C34.8784 24.338 35.8789 25.51 36.0847 26.7335C36.1019 26.8364 36.1019 26.945 36.1019 26.9965L36.1076 26.9907ZM33.9522 23.9607C33.3862 24.9326 32.7516 25.6644 32.5401 26.5048C32.3971 27.0708 32.5629 27.774 32.9174 28.2542C33.2433 28.6887 34.5068 28.7288 34.8555 28.3915C35.3815 27.8883 35.4844 27.0765 35.3472 26.4762C35.1585 25.6415 34.5125 24.9154 33.9522 23.9607Z" fill="#373CB4"/>
<path d="M32.4429 31.7589C32.3972 32.8223 31.8883 33.5541 31.025 33.8685C30.1846 34.1715 29.2356 33.9371 28.6639 33.2796C28.1036 32.6393 27.9492 31.4559 28.3837 30.6555C28.7725 29.9351 29.43 28.866 29.8759 28.1799C30.1618 27.7397 30.2932 27.7397 30.5562 28.1342C31.2137 29.1061 32.2142 30.2781 32.42 31.5016C32.4372 31.6045 32.4372 31.7131 32.4372 31.7646L32.4429 31.7589ZM30.2875 28.7288C29.7215 29.7007 29.0869 30.4325 28.8754 31.2729C28.7325 31.8389 28.8983 32.5421 29.2527 33.0224C29.5786 33.4569 30.8421 33.4969 31.1908 33.1596C31.7168 32.6565 31.8197 31.8446 31.6825 31.2443C31.4939 30.4096 30.8478 29.6835 30.2875 28.7288Z" fill="#373CB4"/>
<path d="M39.7094 31.7589C39.6636 32.8223 39.1548 33.5541 38.2915 33.8685C37.4511 34.1715 36.5021 33.9371 35.9303 33.2796C35.3701 32.6393 35.2157 31.4559 35.6502 30.6555C36.039 29.9351 36.6964 28.866 37.1424 28.1799C37.4282 27.7397 37.5597 27.7397 37.8227 28.1342C38.4802 29.1061 39.4807 30.2781 39.6865 31.5016C39.7037 31.6045 39.7037 31.7131 39.7037 31.7646L39.7094 31.7589ZM37.554 28.7288C36.988 29.7007 36.3534 30.4325 36.1419 31.2729C35.9989 31.8389 36.1647 32.5421 36.5192 33.0224C36.8451 33.4569 38.1086 33.4969 38.4573 33.1596C38.9833 32.6565 39.0862 31.8446 38.949 31.2443C38.7603 30.4096 38.1143 29.6835 37.554 28.7288Z" fill="#373CB4"/>
<path d="M30.6648 21.7138L29.8644 20.5589C29.6872 20.3131 29.6815 19.9643 30.0359 19.7471C30.3447 19.5584 30.6305 19.3412 30.9278 19.1296C31.0993 19.0038 31.105 18.9695 30.985 18.798C30.7849 18.5064 30.5733 18.2206 30.3847 17.9176C30.3104 17.7975 30.2646 17.6489 30.2532 17.5117C30.2417 17.3058 30.4133 17.2029 30.5619 17.1C30.7734 16.9514 30.985 16.8027 31.1965 16.6598C31.4995 16.4597 31.8083 16.2539 32.117 16.0595C32.237 15.9852 32.3743 15.9737 32.5057 16.0595C32.8316 16.2882 32.643 16.414 32.2999 16.6369C31.9855 16.8427 31.3909 17.2601 31.0765 17.4774C30.9164 17.5917 30.9107 17.6146 31.0193 17.7804C31.2423 18.1062 31.4309 18.3692 31.6482 18.7008C31.8083 18.9467 31.7682 19.1754 31.5338 19.3469C31.208 19.587 30.8592 19.8328 30.5219 20.0615C30.3961 20.1473 30.3904 20.2502 30.4647 20.3588C30.6191 20.5818 31.2365 21.0963 31.1851 21.365C31.1851 21.3765 30.6591 21.7138 30.6591 21.7138H30.6648Z" fill="#373CB4"/>
<path d="M33.8664 13.1324C34.0208 12.8751 34.7469 11.6516 34.8955 11.4172C34.9698 11.2971 35.0613 11.1828 35.2271 11.1828C35.3415 11.1828 35.4844 11.2514 35.5244 11.36C35.5701 11.4801 35.5873 11.6059 35.513 11.7259C35.3472 12.0004 34.5982 13.2639 34.4324 13.5383C34.3638 13.6469 34.2609 13.6984 34.1351 13.7098C33.9865 13.7155 33.8779 13.6412 33.815 13.504C33.7521 13.361 33.8207 13.241 33.8664 13.1381V13.1324Z" fill="#373CB4"/>
<path d="M32.34 11.2685C32.4486 11.097 32.5801 11.0741 32.7287 11.0799C32.8545 11.0856 32.9288 11.1599 32.9574 11.2742C33.0489 11.6001 33.3462 12.7378 33.4205 13.0637C33.4434 13.1724 33.4091 13.2867 33.3119 13.3782C33.1175 13.5497 32.8431 13.5154 32.763 13.2238C32.6716 12.8979 32.3971 11.7488 32.3285 11.4115C32.3171 11.3543 32.34 11.2914 32.34 11.2628V11.2685Z" fill="#373CB4"/>
<path d="M36.9765 13.887C36.9079 13.927 36.845 13.9899 36.765 14.007C36.4791 14.0928 35.2214 14.4129 34.9298 14.4816C34.7011 14.5387 34.5868 14.4816 34.501 14.2986C34.4267 14.1442 34.501 13.9156 34.6668 13.8641C35.0041 13.7669 36.3191 13.441 36.6621 13.361C36.7822 13.3324 36.8851 13.3781 36.9594 13.4868C37.0394 13.6125 37.0623 13.7326 36.9594 13.8584C36.9651 13.8641 36.9708 13.8755 36.9765 13.8813V13.887Z" fill="#373CB4"/>
</g>
</g>
<defs>
<filter id="filter0_d_320_2538" x="0" y="0" width="44.5155" height="42" filterUnits="userSpaceOnUse" color-interpolation-filters="sRGB">
<feFlood flood-opacity="0" result="BackgroundImageFix"/>
<feColorMatrix in="SourceAlpha" type="matrix" values="0 0 0 0 0 0 0 0 0 0 0 0 0 0 0 0 0 0 127 0" result="hardAlpha"/>
<feOffset dy="4"/>
<feGaussianBlur stdDeviation="2"/>
<feComposite in2="hardAlpha" operator="out"/>
<feColorMatrix type="matrix" values="0 0 0 0 0 0 0 0 0 0 0 0 0 0 0 0 0 0 0.25 0"/>
<feBlend mode="normal" in2="BackgroundImageFix" result="effect1_dropShadow_320_2538"/>
<feBlend mode="normal" in="SourceGraphic" in2="effect1_dropShadow_320_2538" result="shape"/>
</filter>
<clipPath id="clip0_320_2538">
<rect width="36.5156" height="34" fill="white" transform="translate(4)"/>
</clipPath>
</defs>
</svg>
