<svg width="45" height="28" viewBox="0 0 45 28" fill="none" xmlns="http://www.w3.org/2000/svg">
<g clip-path="url(#clip0_439_3025)">
<path d="M45 22.3742C44.775 22.8847 44.3677 23.0512 43.8319 23.0244C43.3389 22.9975 42.8406 23.0244 42.2994 23.0244C42.3315 24.7008 41.7528 26.0656 40.44 27.0704C39.5452 27.7528 38.5217 28.0645 37.4018 28C34.9048 27.8549 33.3562 26.0979 33.0561 23.0459C32.9114 23.0405 32.7614 23.0298 32.5578 23.019C32.5953 24.7008 32.0059 26.0818 30.6716 27.0866C29.8143 27.7367 28.8337 28.0484 27.7566 27.9946C26.4706 27.9302 25.3829 27.4251 24.5148 26.4633C23.6467 25.5014 23.3252 24.3355 23.352 23.0459H10.9366C10.9473 24.6955 10.3686 26.0818 9.03433 27.0919C8.16091 27.7475 7.16424 28.0645 6.07648 28C4.79046 27.9248 3.7027 27.409 2.84536 26.4364C1.99873 25.4746 1.68794 24.3247 1.69866 23.019C1.42002 23.019 1.17353 23.0298 0.932402 23.019C0.380485 22.9868 0.0482633 22.6805 0.0429049 22.1324C0.0321881 19.8112 -0.0535466 17.4899 0.0750554 15.1741C0.150073 13.7985 0.573388 12.4391 0.841309 11.0743C1.09316 9.79544 1.35572 8.51661 1.61292 7.23778C2.00944 5.29266 3.59018 3.98159 5.57279 3.97084C7.43216 3.96009 9.29154 3.97084 11.1509 3.97084C12.1422 3.97084 12.4048 4.22876 12.4101 5.21743C12.4101 8.75303 12.4101 12.294 12.4101 15.8296C12.4101 15.9908 12.4101 16.152 12.4101 16.3723C12.6245 16.3723 12.8067 16.3723 12.9942 16.3723C23.2234 16.3723 33.458 16.3723 43.6872 16.3616C44.2606 16.3616 44.716 16.4851 45.0054 17.0117V22.385L45 22.3742ZM12.4209 21.1437C12.6245 21.1437 12.7852 21.1437 12.946 21.1437C16.3968 21.1437 19.853 21.1437 23.3038 21.1491C23.6199 21.1491 23.7914 21.047 23.9736 20.7945C25.7472 18.3282 29.2999 18.0649 31.1807 20.3539C31.7433 21.0363 32.2738 21.2351 33.0508 21.1437C33.0936 21.1437 33.1472 21.1599 33.1794 21.1437C33.3348 21.0685 33.5384 21.0202 33.6295 20.8912C35.6657 18.0864 39.3308 18.0917 41.3831 20.9073C41.4528 21.004 41.5653 21.1276 41.6671 21.133C42.144 21.1545 43.3121 21.1437 43.789 21.1437V17.6834H12.4209V21.1491V21.1437ZM11.0277 5.82461C10.8616 5.82461 10.1864 5.82461 10.0417 5.82461C8.60566 5.82461 6.81595 5.82461 5.37989 5.82461C4.13674 5.82461 3.34369 6.48552 3.0972 7.70525C2.81321 9.09692 2.52385 10.4886 2.23986 11.8856C2.07375 12.697 1.91299 13.5137 1.74688 14.3466H11.0277V5.82999V5.82461ZM11.0277 21.2405V15.8672H1.54326V21.1061C1.58077 21.133 1.98265 21.1599 2.02016 21.1814C2.13269 21.0846 2.26665 20.9987 2.34702 20.8805C4.36179 18.0702 8.15019 18.0917 10.1221 20.9234C10.1918 21.0255 10.8455 21.0846 11.0277 21.2351V21.2405ZM24.6113 23.3844C24.6113 25.1307 25.9937 26.5439 27.7352 26.5707C29.466 26.5976 30.9395 25.1253 30.9288 23.3844C30.9181 21.6435 29.5035 20.2357 27.762 20.2357C26.0152 20.2357 24.6166 21.6327 24.6113 23.379V23.3844ZM37.6751 20.01C35.7889 20.01 34.2886 21.4876 34.2778 23.3736C34.2671 25.2758 35.7889 26.8179 37.6697 26.8125C39.5291 26.8071 41.0562 25.2704 41.0562 23.4059C41.0562 21.536 39.5452 20.0154 37.6751 20.01ZM9.45765 23.379C9.44693 21.5682 8.01623 20.1443 6.2158 20.1443C4.3993 20.1443 2.94717 21.622 2.97396 23.4381C3.00075 25.2274 4.48503 26.6836 6.25331 26.6567C8.04838 26.6298 9.47372 25.1737 9.46301 23.3736L9.45765 23.379Z" fill="#373CB4"/>
<path d="M45 11.977C44.7428 12.5788 44.5767 13.2343 44.2177 13.7663C43.4729 14.8732 42.3637 15.4051 41.0348 15.4105C35.6925 15.4212 30.3555 15.4105 25.0131 15.4105C22.9662 15.4105 20.9193 15.4105 18.867 15.4105C16.445 15.4105 14.7518 13.734 14.7357 11.2946C14.7196 8.90347 14.7196 6.51238 14.7357 4.12128C14.7571 1.67108 16.4504 0 18.9099 0C26.1973 0 33.4848 0 40.7669 0C42.9692 0 44.3999 1.12301 44.9357 3.27231C44.9518 3.32604 44.9786 3.37977 45 3.43351V11.977ZM29.8786 1.39704C26.0741 1.39704 22.2696 1.39704 18.4705 1.39704C17.0237 1.39704 16.1503 2.32662 16.1503 3.85262C16.1503 6.44253 16.1503 9.0378 16.1503 11.6277C16.1503 11.8803 16.1557 12.1435 16.2146 12.3907C16.4718 13.4869 17.3238 14.1102 18.5402 14.1102C26.0687 14.1102 33.6027 14.1102 41.1313 14.1102C42.7441 14.1102 43.6015 13.2021 43.6015 11.5041C43.6015 9.00557 43.6015 6.51238 43.6015 4.01382C43.6015 2.28363 42.7495 1.39167 41.1045 1.39167C37.3589 1.39167 33.6188 1.39167 29.8732 1.39167L29.8786 1.39704Z" fill="#373CB4"/>
<path d="M8.36984 11.3214C8.57346 11.3214 8.77708 11.3107 8.9807 11.3214C9.5219 11.3537 9.84877 11.6868 9.85948 12.2134C9.87556 12.7507 9.53798 13.143 8.99678 13.1752C8.57346 13.1967 8.15015 13.1967 7.72683 13.1752C7.18027 13.143 6.85877 12.7615 6.87484 12.208C6.88556 11.6814 7.21242 11.3483 7.75362 11.3161C7.95724 11.3053 8.16086 11.3161 8.36448 11.3161L8.36984 11.3214Z" fill="#373CB4"/>
<path d="M21.6158 6.75418C21.6319 6.08252 21.8034 5.53445 22.066 5.02399C22.366 4.44368 22.7036 3.87949 23.0519 3.32605C23.2662 2.98216 23.5931 2.9929 23.8235 3.32605C24.4129 4.20189 24.9488 5.10996 25.1899 6.15775C25.3721 6.95299 25.1899 7.65151 24.5255 8.1566C23.936 8.60258 23.277 8.65631 22.6232 8.32317C21.9534 7.98465 21.6426 7.40972 21.6212 6.74881L21.6158 6.75418ZM23.427 4.22875C23.0573 4.82518 22.7304 5.40549 22.5482 6.05566C22.4839 6.27596 22.441 6.51238 22.441 6.73806C22.441 7.30762 22.9501 7.74823 23.5181 7.69987C24.07 7.65151 24.4933 7.13568 24.4183 6.58223C24.3004 5.71714 23.861 4.99175 23.4216 4.22875H23.427Z" fill="#373CB4"/>
<path d="M33.5812 11.2731C33.5973 10.6014 33.7687 10.0534 34.0313 9.54291C34.3314 8.9626 34.6689 8.39841 35.0172 7.84497C35.2316 7.50108 35.5584 7.51183 35.7888 7.84497C36.3783 8.72081 36.9141 9.62889 37.1552 10.6767C37.3374 11.4719 37.1552 12.1704 36.4908 12.6755C35.9014 13.1215 35.2423 13.1752 34.5886 12.8421C33.9188 12.5036 33.608 11.9286 33.5865 11.2677L33.5812 11.2731ZM35.3923 8.74767C35.0226 9.3441 34.6957 9.92441 34.5135 10.5746C34.4492 10.7949 34.4064 11.0313 34.4064 11.257C34.4064 11.8265 34.9154 12.2671 35.4834 12.2188C36.0353 12.1704 36.4586 11.6546 36.3836 11.1012C36.2657 10.2361 35.8264 9.51067 35.387 8.74767H35.3923Z" fill="#373CB4"/>
<path d="M25.8008 9.81692C25.8329 8.6563 26.1223 7.70524 26.5778 6.82402C27.0975 5.81923 27.6816 4.84667 28.2871 3.88486C28.6622 3.28843 29.2302 3.30455 29.6213 3.89023C30.6448 5.41086 31.5718 6.97985 31.979 8.79063C32.2898 10.1662 31.9844 11.3698 30.827 12.2456C29.8035 13.0194 28.6729 13.1107 27.5316 12.5358C26.3741 11.9501 25.8329 10.9561 25.8008 9.81155V9.81692ZM28.9301 4.89503C28.1746 6.12013 27.5101 7.30762 27.135 8.63481C27.0064 9.08616 26.9153 9.56975 26.9207 10.0319C26.926 11.2032 27.9656 12.1006 29.1284 12.0038C30.259 11.9071 31.127 10.8486 30.9717 9.70946C30.7305 7.94166 29.8357 6.4479 28.9301 4.88965V4.89503Z" fill="#373CB4"/>
</g>
<defs>
<clipPath id="clip0_439_3025">
<rect width="45" height="28" fill="white"/>
</clipPath>
</defs>
</svg>
