<svg width="23" height="30" viewBox="0 0 23 30" fill="none" xmlns="http://www.w3.org/2000/svg">
<g clip-path="url(#clip0_320_2540)">
<path d="M9.32381 19.278H7.64893C7.28329 20.5884 6.44586 21.4021 5.21329 21.7671C6.19227 22.7902 7.15945 23.8014 8.13842 24.8245C7.84355 25.1237 7.55458 25.4109 7.24201 25.722C6.27483 24.7647 5.30765 23.8014 4.34047 22.8441C4.09868 22.6047 3.85688 22.3594 3.5974 22.138C3.44406 22.0064 3.26124 21.9047 3.03124 21.7491V20.5525C3.51483 20.5525 4.02201 20.5644 4.52329 20.5525C5.17791 20.5345 5.74406 20.3251 6.1215 19.7447C6.20406 19.6191 6.25714 19.4755 6.3574 19.284H3.06073V18.0036H6.30432C6.1215 17.2976 5.57304 16.8309 4.89483 16.789C4.29329 16.7471 3.68586 16.7232 3.01355 16.6873C3.01355 16.3403 3.01355 16.0052 3.01355 15.6642C3.01355 15.3411 3.27304 15.4129 3.44996 15.4129C4.75329 15.4069 6.05073 15.4129 7.35406 15.4129C8.00278 15.4129 8.6515 15.4129 9.32381 15.4129V16.6813H7.07688C7.28919 17.148 7.47201 17.5549 7.67842 17.9976H9.32381V19.2721V19.278Z" fill="#373CB4"/>
<path d="M21.9621 28.2649V28.6658C21.5492 28.4025 21.1777 28.1751 20.8238 27.9298C20.4346 27.6546 20.0749 27.6486 19.6797 27.9298C19.2079 28.2589 18.7244 28.57 18.229 28.8632C18.1287 28.923 17.9695 28.923 17.8692 28.8632C17.3679 28.564 16.8785 28.2469 16.3949 27.9179C16.0233 27.6606 15.6813 27.6606 15.3097 27.9179C14.8379 28.2469 14.3426 28.5401 13.8649 28.8632C13.7056 28.9709 13.5995 28.9649 13.4403 28.8632C12.9449 28.5281 12.4377 28.217 11.9423 27.8879C11.6415 27.6905 11.2523 27.6965 10.9574 27.8939C10.4974 28.1991 10.0256 28.4803 9.57744 28.7974C9.35333 28.953 9.1941 28.9769 8.9641 28.8094C8.51 28.4803 8.02641 28.1991 7.56051 27.8879C7.25974 27.6905 6.87051 27.6905 6.57564 27.8879C6.08026 28.217 5.57308 28.5341 5.07769 28.8632C4.93026 28.9589 4.83 28.9709 4.68256 28.8632C4.21667 28.5461 3.72718 28.2589 3.26718 27.9358C2.86615 27.6546 2.50051 27.6426 2.09949 27.9358C1.75154 28.1931 1.3741 28.4085 0.961282 28.6717V28.3068C0.961282 27.2537 0.961282 21.3183 0.961282 21.3183H0C0 21.3183 0 27.7144 0 28.9948C0 29.3119 0.094359 29.5692 0.371538 29.7308C0.660513 29.8983 0.937692 29.8445 1.20897 29.665C1.62769 29.3897 2.05231 29.1265 2.46513 28.8453C2.60077 28.7555 2.70692 28.7256 2.86026 28.8273C3.45 29.2282 4.04564 29.6051 4.64128 29.994H5.08949C5.69103 29.6051 6.29256 29.2042 6.9 28.8273C6.98846 28.7735 7.1359 28.7735 7.22436 28.8273C7.8318 29.2042 8.43333 29.6051 9.03487 29.994H9.47718C10.0787 29.6051 10.6803 29.2042 11.2936 28.8273C11.3821 28.7735 11.5295 28.7735 11.6179 28.8273C12.2254 29.2042 12.8269 29.6051 13.4285 29.994H13.8767C14.4782 29.6051 15.0797 29.2042 15.6872 28.8273C15.7756 28.7735 15.9231 28.7735 16.0115 28.8273C16.619 29.2042 17.2205 29.6051 17.8221 29.994H18.2703C18.8659 29.6051 19.4674 29.2282 20.0572 28.8273C20.2105 28.7256 20.3167 28.7495 20.4523 28.8393C20.8415 29.1025 21.2426 29.3478 21.6259 29.6111C21.909 29.8026 22.1921 29.9103 22.5164 29.7427C22.8526 29.5632 22.9174 29.2521 22.9174 28.8931C22.9174 20.4448 22.9174 22.3415 22.9174 15.4547C22.9174 15.0539 22.4456 14.8504 22.1626 15.1257L21.9562 15.3231C21.9562 23.2689 21.9562 19.6131 21.9562 28.2589L21.9621 28.2649Z" fill="#373CB4"/>
<path d="M9.40641 0.789795C4.88308 0.789795 6.4459 0.789795 1.92846 0.789795C0.707692 0.789795 0 1.51377 0 2.76427C0 10.6382 0 19.8345 0 19.8345H0.955385V2.84803C0.955385 2.02833 1.21487 1.76506 2.01692 1.76506C6.33385 1.76506 5.01282 1.76506 8.90513 1.76506C9.17051 1.76506 9.38872 1.54368 9.38872 1.27444V1.13682C9.38872 1.01716 9.39462 0.903477 9.40641 0.789795Z" fill="#373CB4"/>
<path d="M19.6031 2.02236C19.7977 1.69328 19.721 1.32232 19.4085 1.09496C19.3318 1.03512 19.2433 0.993241 19.1608 0.945375C14.2246 -1.81889 8.14436 1.82491 8.11487 7.55088C8.16205 7.98167 8.19153 8.42443 8.2623 8.84924C8.77538 11.8409 11.0341 14.2581 13.9062 14.9043C16.8962 15.5804 19.9215 14.3897 21.6672 11.8588C23.3715 9.38175 23.4482 6.07302 21.8559 3.52415C21.5669 3.06344 21.2308 2.94976 20.8533 3.17713C20.529 3.36859 20.4877 3.7575 20.7649 4.21821C21.4372 5.3311 21.7379 6.53373 21.6967 7.83808C21.5964 11.0391 18.8895 13.7256 15.7344 13.7914C12.1959 13.8632 9.25897 10.8656 9.44179 7.19188C9.62461 3.48826 13.1454 0.646212 16.7074 1.44198C17.4151 1.59755 18.0815 1.94458 18.7597 2.21981C19.1136 2.3634 19.4379 2.29759 19.6031 2.02236Z" fill="#373CB4"/>
<path d="M16.1471 3.02756C15.7933 2.6566 15.3274 2.67455 14.9677 3.05747C13.9415 4.15241 12.9802 5.30717 12.302 6.65939C12.0425 7.17395 11.8125 7.7603 11.783 8.32871C11.6651 10.5006 13.393 12.2896 15.5338 12.3076C18.1936 12.3913 20.2695 9.45356 19.0074 6.95257C18.2643 5.48069 17.2618 4.21224 16.1471 3.02756ZM17.5154 10.0878C16.8077 10.9254 15.8877 11.2126 14.8497 10.9015C13.8059 10.5904 13.1807 9.83051 13.0687 8.73557C13.0274 8.31675 13.1571 7.83809 13.34 7.44319C13.8825 6.27646 14.7023 5.29521 15.6459 4.21822C16.3771 5.28922 17.1143 6.25851 17.7336 7.29959C18.3292 8.29281 18.2171 9.25013 17.5154 10.0758V10.0878Z" fill="#373CB4"/>
<path d="M19.3199 17.7583C19.3199 17.7583 19.2787 17.7583 19.2551 17.7583C16.041 17.7583 15.2625 17.7583 12.0543 17.7583C11.9305 17.7583 11.7771 17.7463 11.6887 17.8181C11.5648 17.9139 11.4292 18.0635 11.4174 18.2071C11.4056 18.3507 11.4999 18.5481 11.612 18.6379C11.7181 18.7276 11.9069 18.7336 12.0602 18.7336C13.6584 18.7396 12.8269 18.7336 14.431 18.7336C16.0646 18.7336 17.6981 18.7336 19.3317 18.7336C19.7033 18.7336 19.9215 18.5421 19.9215 18.2489C19.9215 17.9558 19.6915 17.7703 19.3258 17.7583H19.3199Z" fill="#373CB4"/>
<path d="M14.4546 21.6474C16.0882 21.6474 17.7218 21.6474 19.3554 21.6474C19.7033 21.6474 19.9156 21.4559 19.9156 21.1687C19.9156 20.8875 19.6974 20.6901 19.3613 20.6721C19.3082 20.6721 19.2551 20.6721 19.202 20.6721C16.0233 20.6721 15.2744 20.6721 12.0956 20.6721C11.96 20.6721 11.7949 20.6601 11.6946 20.726C11.5708 20.8097 11.4351 20.9713 11.4174 21.1089C11.3997 21.2525 11.4941 21.4499 11.6061 21.5457C11.7123 21.6354 11.901 21.6414 12.0544 21.6414C13.6644 21.6474 12.8446 21.6414 14.4546 21.6414V21.6474Z" fill="#373CB4"/>
<path d="M12.0661 24.5493C13.6643 24.5493 12.8328 24.5493 14.4369 24.5493C16.0823 24.5493 17.7218 24.5493 19.3671 24.5493C19.7092 24.5493 19.9274 24.3459 19.9215 24.0587C19.9215 23.7894 19.7033 23.592 19.3848 23.574C19.32 23.574 19.2551 23.574 19.1961 23.574C16.0292 23.574 15.292 23.574 12.1192 23.574C11.9836 23.574 11.8184 23.5561 11.7182 23.6219C11.5884 23.7116 11.4351 23.8792 11.4233 24.0228C11.4115 24.1664 11.5295 24.3638 11.6474 24.4715C11.7418 24.5553 11.9246 24.5433 12.072 24.5493H12.0661Z" fill="#373CB4"/>
</g>
<defs>
<clipPath id="clip0_320_2540">
<rect width="23" height="30" fill="white"/>
</clipPath>
</defs>
</svg>
